<?xml version="1.0" encoding="UTF-8" standalone="no"?><svg xmlns="http://www.w3.org/2000/svg" xmlns:xlink="http://www.w3.org/1999/xlink" contentStyleType="text/css" height="1668px" preserveAspectRatio="none" style="width:2413px;height:1668px;background:#FFFFFF;" version="1.1" viewBox="0 0 2413 1668" width="2413px" zoomAndPan="magnify"><defs/><g><!--MD5=[4c07645aec20a6de34e936b4635617bd]
class AppViewModel--><g id="elem_AppViewModel"><rect codeLine="2" fill="#F1F1F1" height="65.6094" id="AppViewModel" rx="2.5" ry="2.5" style="stroke:#181818;stroke-width:0.5;" width="159" x="1664" y="102.61"/><ellipse cx="1694.75" cy="118.61" fill="#ADD1B2" rx="11" ry="11" style="stroke:#181818;stroke-width:1.0;"/><path d="M1697.5156,114.485 Q1697.6719,114.2662 1697.8594,114.1569 Q1698.0469,114.0475 1698.2656,114.0475 Q1698.6406,114.0475 1698.875,114.3131 Q1699.1094,114.5631 1699.1094,115.1725 L1699.1094,116.6256 Q1699.1094,117.235 1698.875,117.5006 Q1698.6406,117.7662 1698.2656,117.7662 Q1697.9219,117.7662 1697.7188,117.5631 Q1697.5156,117.3756 1697.4063,116.86 Q1697.3594,116.5006 1697.1719,116.3131 Q1696.8438,115.9381 1696.2344,115.7194 Q1695.625,115.5006 1695,115.5006 Q1694.2344,115.5006 1693.5938,115.8287 Q1692.9688,116.1569 1692.4688,116.9069 Q1691.9844,117.6569 1691.9844,118.6881 L1691.9844,119.7819 Q1691.9844,121.0162 1692.875,121.8444 Q1693.7656,122.6569 1695.3594,122.6569 Q1696.2969,122.6569 1696.9531,122.4069 Q1697.3438,122.2506 1697.7656,121.8131 Q1698.0313,121.5475 1698.1719,121.4694 Q1698.3281,121.3912 1698.5313,121.3912 Q1698.8594,121.3912 1699.1094,121.6569 Q1699.375,121.9069 1699.375,122.2506 Q1699.375,122.5944 1699.0313,123.0006 Q1698.5313,123.5787 1697.7344,123.9069 Q1696.6563,124.36 1695.3594,124.36 Q1693.8438,124.36 1692.6406,123.735 Q1691.6563,123.235 1690.9688,122.1725 Q1690.2813,121.0944 1690.2813,119.8131 L1690.2813,118.6569 Q1690.2813,117.3287 1690.8906,116.1881 Q1691.5156,115.0319 1692.6094,114.4225 Q1693.7031,113.7975 1694.9375,113.7975 Q1695.6719,113.7975 1696.3125,113.9694 Q1696.9688,114.1256 1697.5156,114.485 Z " fill="#000000"/><text fill="#000000" font-family="sans-serif" font-size="14" lengthAdjust="spacing" textLength="92" x="1712.25" y="124.3385">AppViewModel</text><line style="stroke:#181818;stroke-width:0.5;" x1="1665" x2="1822" y1="134.61" y2="134.61"/><ellipse cx="1675" cy="148.9147" fill="none" rx="3" ry="3" style="stroke:#038048;stroke-width:1.0;"/><text fill="#000000" font-family="sans-serif" font-size="14" lengthAdjust="spacing" textLength="133" x="1684" y="153.1432">animeList: Overviews</text><line style="stroke:#181818;stroke-width:0.5;" x1="1665" x2="1822" y1="160.2194" y2="160.2194"/></g><!--MD5=[d813980144becf2f6b0d43aee75f9f3a]
class AppBar--><g id="elem_AppBar"><rect codeLine="6" fill="#F1F1F1" height="83.2188" id="AppBar" rx="2.5" ry="2.5" style="stroke:#181818;stroke-width:0.5;" width="162" x="1417.5" y="607.61"/><ellipse cx="1470.75" cy="623.61" fill="#ADD1B2" rx="11" ry="11" style="stroke:#181818;stroke-width:1.0;"/><path d="M1473.5156,619.485 Q1473.6719,619.2662 1473.8594,619.1569 Q1474.0469,619.0475 1474.2656,619.0475 Q1474.6406,619.0475 1474.875,619.3131 Q1475.1094,619.5631 1475.1094,620.1725 L1475.1094,621.6256 Q1475.1094,622.235 1474.875,622.5006 Q1474.6406,622.7662 1474.2656,622.7662 Q1473.9219,622.7662 1473.7188,622.5631 Q1473.5156,622.3756 1473.4063,621.86 Q1473.3594,621.5006 1473.1719,621.3131 Q1472.8438,620.9381 1472.2344,620.7194 Q1471.625,620.5006 1471,620.5006 Q1470.2344,620.5006 1469.5938,620.8287 Q1468.9688,621.1569 1468.4688,621.9069 Q1467.9844,622.6569 1467.9844,623.6881 L1467.9844,624.7819 Q1467.9844,626.0162 1468.875,626.8444 Q1469.7656,627.6569 1471.3594,627.6569 Q1472.2969,627.6569 1472.9531,627.4069 Q1473.3438,627.2506 1473.7656,626.8131 Q1474.0313,626.5475 1474.1719,626.4694 Q1474.3281,626.3912 1474.5313,626.3912 Q1474.8594,626.3912 1475.1094,626.6569 Q1475.375,626.9069 1475.375,627.2506 Q1475.375,627.5944 1475.0313,628.0006 Q1474.5313,628.5787 1473.7344,628.9069 Q1472.6563,629.36 1471.3594,629.36 Q1469.8438,629.36 1468.6406,628.735 Q1467.6563,628.235 1466.9688,627.1725 Q1466.2813,626.0944 1466.2813,624.8131 L1466.2813,623.6569 Q1466.2813,622.3287 1466.8906,621.1881 Q1467.5156,620.0319 1468.6094,619.4225 Q1469.7031,618.7975 1470.9375,618.7975 Q1471.6719,618.7975 1472.3125,618.9694 Q1472.9688,619.1256 1473.5156,619.485 Z " fill="#000000"/><text fill="#000000" font-family="sans-serif" font-size="14" lengthAdjust="spacing" textLength="47" x="1491.25" y="629.3385">AppBar</text><line style="stroke:#181818;stroke-width:0.5;" x1="1418.5" x2="1578.5" y1="639.61" y2="639.61"/><rect fill="none" height="6" style="stroke:#C82930;stroke-width:1.0;" width="6" x="1425.5" y="650.9147"/><text fill="#000000" font-family="sans-serif" font-size="14" lengthAdjust="spacing" textLength="136" x="1437.5" y="658.1432">appModel: IAppModel</text><line style="stroke:#181818;stroke-width:0.5;" x1="1418.5" x2="1578.5" y1="665.2194" y2="665.2194"/><ellipse cx="1428.5" cy="679.5241" fill="#84BE84" rx="3" ry="3" style="stroke:#038048;stroke-width:1.0;"/><text fill="#000000" font-family="sans-serif" font-size="14" lengthAdjust="spacing" textLength="98" x="1437.5" y="683.7526">handleSearch()</text></g><!--MD5=[815c70193e316793021033c4d14a6485]
class DataCards--><g id="elem_DataCards"><rect codeLine="11" fill="#F1F1F1" height="136.0469" id="DataCards" rx="2.5" ry="2.5" style="stroke:#181818;stroke-width:0.5;" width="258" x="1614.5" y="581.11"/><ellipse cx="1705.25" cy="597.11" fill="#ADD1B2" rx="11" ry="11" style="stroke:#181818;stroke-width:1.0;"/><path d="M1708.0156,592.985 Q1708.1719,592.7662 1708.3594,592.6569 Q1708.5469,592.5475 1708.7656,592.5475 Q1709.1406,592.5475 1709.375,592.8131 Q1709.6094,593.0631 1709.6094,593.6725 L1709.6094,595.1256 Q1709.6094,595.735 1709.375,596.0006 Q1709.1406,596.2662 1708.7656,596.2662 Q1708.4219,596.2662 1708.2188,596.0631 Q1708.0156,595.8756 1707.9063,595.36 Q1707.8594,595.0006 1707.6719,594.8131 Q1707.3438,594.4381 1706.7344,594.2194 Q1706.125,594.0006 1705.5,594.0006 Q1704.7344,594.0006 1704.0938,594.3287 Q1703.4688,594.6569 1702.9688,595.4069 Q1702.4844,596.1569 1702.4844,597.1881 L1702.4844,598.2819 Q1702.4844,599.5162 1703.375,600.3444 Q1704.2656,601.1569 1705.8594,601.1569 Q1706.7969,601.1569 1707.4531,600.9069 Q1707.8438,600.7506 1708.2656,600.3131 Q1708.5313,600.0475 1708.6719,599.9694 Q1708.8281,599.8912 1709.0313,599.8912 Q1709.3594,599.8912 1709.6094,600.1569 Q1709.875,600.4069 1709.875,600.7506 Q1709.875,601.0944 1709.5313,601.5006 Q1709.0313,602.0787 1708.2344,602.4069 Q1707.1563,602.86 1705.8594,602.86 Q1704.3438,602.86 1703.1406,602.235 Q1702.1563,601.735 1701.4688,600.6725 Q1700.7813,599.5944 1700.7813,598.3131 L1700.7813,597.1569 Q1700.7813,595.8287 1701.3906,594.6881 Q1702.0156,593.5319 1703.1094,592.9225 Q1704.2031,592.2975 1705.4375,592.2975 Q1706.1719,592.2975 1706.8125,592.4694 Q1707.4688,592.6256 1708.0156,592.985 Z " fill="#000000"/><text fill="#000000" font-family="sans-serif" font-size="14" lengthAdjust="spacing" textLength="68" x="1725.75" y="602.8385">DataCards</text><line style="stroke:#181818;stroke-width:0.5;" x1="1615.5" x2="1871.5" y1="613.11" y2="613.11"/><rect fill="none" height="6" style="stroke:#C82930;stroke-width:1.0;" width="6" x="1622.5" y="624.4147"/><text fill="#000000" font-family="sans-serif" font-size="14" lengthAdjust="spacing" textLength="136" x="1634.5" y="631.6432">appModel: IAppModel</text><line style="stroke:#181818;stroke-width:0.5;" x1="1615.5" x2="1871.5" y1="638.7194" y2="638.7194"/><ellipse cx="1625.5" cy="653.0241" fill="#84BE84" rx="3" ry="3" style="stroke:#038048;stroke-width:1.0;"/><text fill="#000000" font-family="sans-serif" font-size="14" lengthAdjust="spacing" textLength="216" x="1634.5" y="657.2526">toggleHover(mal_id: number | null)</text><ellipse cx="1625.5" cy="670.6334" fill="#84BE84" rx="3" ry="3" style="stroke:#038048;stroke-width:1.0;"/><text fill="#000000" font-family="sans-serif" font-size="14" lengthAdjust="spacing" textLength="207" x="1634.5" y="674.862">addToFavorites(mal_id: number)</text><ellipse cx="1625.5" cy="688.2428" fill="#84BE84" rx="3" ry="3" style="stroke:#038048;stroke-width:1.0;"/><text fill="#000000" font-family="sans-serif" font-size="14" lengthAdjust="spacing" textLength="169" x="1634.5" y="692.4713">isFavorite(mal_id: number)</text><ellipse cx="1625.5" cy="705.8522" fill="#84BE84" rx="3" ry="3" style="stroke:#038048;stroke-width:1.0;"/><text fill="#000000" font-family="sans-serif" font-size="14" lengthAdjust="spacing" textLength="232" x="1634.5" y="710.0807">toggleFavorites(overview: IOverview)</text></g><!--MD5=[0fd8cd9cfb9733999f48895b33059e7f]
class DataTable--><g id="elem_DataTable"><rect codeLine="19" fill="#F1F1F1" height="65.6094" id="DataTable" rx="2.5" ry="2.5" style="stroke:#181818;stroke-width:0.5;" width="162" x="1907.5" y="616.11"/><ellipse cx="1951.3" cy="632.11" fill="#ADD1B2" rx="11" ry="11" style="stroke:#181818;stroke-width:1.0;"/><path d="M1954.0656,627.985 Q1954.2219,627.7662 1954.4094,627.6569 Q1954.5969,627.5475 1954.8156,627.5475 Q1955.1906,627.5475 1955.425,627.8131 Q1955.6594,628.0631 1955.6594,628.6725 L1955.6594,630.1256 Q1955.6594,630.735 1955.425,631.0006 Q1955.1906,631.2662 1954.8156,631.2662 Q1954.4719,631.2662 1954.2688,631.0631 Q1954.0656,630.8756 1953.9563,630.36 Q1953.9094,630.0006 1953.7219,629.8131 Q1953.3938,629.4381 1952.7844,629.2194 Q1952.175,629.0006 1951.55,629.0006 Q1950.7844,629.0006 1950.1438,629.3287 Q1949.5188,629.6569 1949.0188,630.4069 Q1948.5344,631.1569 1948.5344,632.1881 L1948.5344,633.2819 Q1948.5344,634.5162 1949.425,635.3444 Q1950.3156,636.1569 1951.9094,636.1569 Q1952.8469,636.1569 1953.5031,635.9069 Q1953.8938,635.7506 1954.3156,635.3131 Q1954.5813,635.0475 1954.7219,634.9694 Q1954.8781,634.8912 1955.0813,634.8912 Q1955.4094,634.8912 1955.6594,635.1569 Q1955.925,635.4069 1955.925,635.7506 Q1955.925,636.0944 1955.5813,636.5006 Q1955.0813,637.0787 1954.2844,637.4069 Q1953.2063,637.86 1951.9094,637.86 Q1950.3938,637.86 1949.1906,637.235 Q1948.2063,636.735 1947.5188,635.6725 Q1946.8313,634.5944 1946.8313,633.3131 L1946.8313,632.1569 Q1946.8313,630.8287 1947.4406,629.6881 Q1948.0656,628.5319 1949.1594,627.9225 Q1950.2531,627.2975 1951.4875,627.2975 Q1952.2219,627.2975 1952.8625,627.4694 Q1953.5188,627.6256 1954.0656,627.985 Z " fill="#000000"/><text fill="#000000" font-family="sans-serif" font-size="14" lengthAdjust="spacing" textLength="66" x="1971.7" y="637.8385">DataTable</text><line style="stroke:#181818;stroke-width:0.5;" x1="1908.5" x2="2068.5" y1="648.11" y2="648.11"/><rect fill="none" height="6" style="stroke:#C82930;stroke-width:1.0;" width="6" x="1915.5" y="659.4147"/><text fill="#000000" font-family="sans-serif" font-size="14" lengthAdjust="spacing" textLength="136" x="1927.5" y="666.6432">appModel: IAppModel</text><line style="stroke:#181818;stroke-width:0.5;" x1="1908.5" x2="2068.5" y1="673.7194" y2="673.7194"/></g><!--MD5=[a27485bec88a61ac750df1a07399bebe]
class IAppModel--><g id="elem_IAppModel"><rect codeLine="23" fill="#F1F1F1" height="65.6094" id="IAppModel" rx="2.5" ry="2.5" style="stroke:#181818;stroke-width:0.5;" width="159" x="762" y="102.61"/><ellipse cx="804.45" cy="118.61" fill="#ADD1B2" rx="11" ry="11" style="stroke:#181818;stroke-width:1.0;"/><path d="M807.2156,114.485 Q807.3719,114.2662 807.5594,114.1569 Q807.7469,114.0475 807.9656,114.0475 Q808.3406,114.0475 808.575,114.3131 Q808.8094,114.5631 808.8094,115.1725 L808.8094,116.6256 Q808.8094,117.235 808.575,117.5006 Q808.3406,117.7662 807.9656,117.7662 Q807.6219,117.7662 807.4188,117.5631 Q807.2156,117.3756 807.1063,116.86 Q807.0594,116.5006 806.8719,116.3131 Q806.5438,115.9381 805.9344,115.7194 Q805.325,115.5006 804.7,115.5006 Q803.9344,115.5006 803.2938,115.8287 Q802.6688,116.1569 802.1688,116.9069 Q801.6844,117.6569 801.6844,118.6881 L801.6844,119.7819 Q801.6844,121.0162 802.575,121.8444 Q803.4656,122.6569 805.0594,122.6569 Q805.9969,122.6569 806.6531,122.4069 Q807.0438,122.2506 807.4656,121.8131 Q807.7313,121.5475 807.8719,121.4694 Q808.0281,121.3912 808.2313,121.3912 Q808.5594,121.3912 808.8094,121.6569 Q809.075,121.9069 809.075,122.2506 Q809.075,122.5944 808.7313,123.0006 Q808.2313,123.5787 807.4344,123.9069 Q806.3563,124.36 805.0594,124.36 Q803.5438,124.36 802.3406,123.735 Q801.3563,123.235 800.6688,122.1725 Q799.9813,121.0944 799.9813,119.8131 L799.9813,118.6569 Q799.9813,117.3287 800.5906,116.1881 Q801.2156,115.0319 802.3094,114.4225 Q803.4031,113.7975 804.6375,113.7975 Q805.3719,113.7975 806.0125,113.9694 Q806.6688,114.1256 807.2156,114.485 Z " fill="#000000"/><text fill="#000000" font-family="sans-serif" font-size="14" lengthAdjust="spacing" textLength="66" x="824.55" y="124.3385">IAppModel</text><line style="stroke:#181818;stroke-width:0.5;" x1="763" x2="920" y1="134.61" y2="134.61"/><ellipse cx="773" cy="148.9147" fill="none" rx="3" ry="3" style="stroke:#038048;stroke-width:1.0;"/><text fill="#000000" font-family="sans-serif" font-size="14" lengthAdjust="spacing" textLength="133" x="782" y="153.1432">animeList: Overviews</text><line style="stroke:#181818;stroke-width:0.5;" x1="763" x2="920" y1="160.2194" y2="160.2194"/></g><!--MD5=[d72c4871c9b2a0533fa585f2baef4751]
class IOverview--><g id="elem_IOverview"><rect codeLine="27" fill="#F1F1F1" height="717.1563" id="IOverview" rx="2.5" ry="2.5" style="stroke:#181818;stroke-width:0.5;" width="241" x="280" y="290.61"/><ellipse cx="365.75" cy="306.61" fill="#ADD1B2" rx="11" ry="11" style="stroke:#181818;stroke-width:1.0;"/><path d="M368.5156,302.485 Q368.6719,302.2662 368.8594,302.1569 Q369.0469,302.0475 369.2656,302.0475 Q369.6406,302.0475 369.875,302.3131 Q370.1094,302.5631 370.1094,303.1725 L370.1094,304.6256 Q370.1094,305.235 369.875,305.5006 Q369.6406,305.7662 369.2656,305.7662 Q368.9219,305.7662 368.7188,305.5631 Q368.5156,305.3756 368.4063,304.86 Q368.3594,304.5006 368.1719,304.3131 Q367.8438,303.9381 367.2344,303.7194 Q366.625,303.5006 366,303.5006 Q365.2344,303.5006 364.5938,303.8287 Q363.9688,304.1569 363.4688,304.9069 Q362.9844,305.6569 362.9844,306.6881 L362.9844,307.7819 Q362.9844,309.0162 363.875,309.8444 Q364.7656,310.6569 366.3594,310.6569 Q367.2969,310.6569 367.9531,310.4069 Q368.3438,310.2506 368.7656,309.8131 Q369.0313,309.5475 369.1719,309.4694 Q369.3281,309.3912 369.5313,309.3912 Q369.8594,309.3912 370.1094,309.6569 Q370.375,309.9069 370.375,310.2506 Q370.375,310.5944 370.0313,311.0006 Q369.5313,311.5787 368.7344,311.9069 Q367.6563,312.36 366.3594,312.36 Q364.8438,312.36 363.6406,311.735 Q362.6563,311.235 361.9688,310.1725 Q361.2813,309.0944 361.2813,307.8131 L361.2813,306.6569 Q361.2813,305.3287 361.8906,304.1881 Q362.5156,303.0319 363.6094,302.4225 Q364.7031,301.7975 365.9375,301.7975 Q366.6719,301.7975 367.3125,301.9694 Q367.9688,302.1256 368.5156,302.485 Z " fill="#000000"/><text fill="#000000" font-family="sans-serif" font-size="14" lengthAdjust="spacing" textLength="61" x="386.25" y="312.3385">IOverview</text><line style="stroke:#181818;stroke-width:0.5;" x1="281" x2="520" y1="322.61" y2="322.61"/><rect fill="none" height="6" style="stroke:#C82930;stroke-width:1.0;" width="6" x="288" y="333.9147"/><text fill="#000000" font-family="sans-serif" font-size="14" lengthAdjust="spacing" textLength="97" x="300" y="341.1432">mal_id: number</text><rect fill="none" height="6" style="stroke:#C82930;stroke-width:1.0;" width="6" x="288" y="351.5241"/><text fill="#000000" font-family="sans-serif" font-size="14" lengthAdjust="spacing" textLength="59" x="300" y="358.7526">url: string</text><rect fill="none" height="6" style="stroke:#C82930;stroke-width:1.0;" width="6" x="288" y="369.1334"/><text fill="#000000" font-family="sans-serif" font-size="14" lengthAdjust="spacing" textLength="98" x="300" y="376.362">images: Images</text><rect fill="none" height="6" style="stroke:#C82930;stroke-width:1.0;" width="6" x="288" y="386.7428"/><text fill="#000000" font-family="sans-serif" font-size="14" lengthAdjust="spacing" textLength="85" x="300" y="393.9713">trailer: Trailer</text><rect fill="none" height="6" style="stroke:#C82930;stroke-width:1.0;" width="6" x="288" y="404.3522"/><text fill="#000000" font-family="sans-serif" font-size="14" lengthAdjust="spacing" textLength="119" x="300" y="411.5807">approved: boolean</text><rect fill="none" height="6" style="stroke:#C82930;stroke-width:1.0;" width="6" x="288" y="421.9616"/><text fill="#000000" font-family="sans-serif" font-size="14" lengthAdjust="spacing" textLength="72" x="300" y="429.1901">titles: Title[]</text><rect fill="none" height="6" style="stroke:#C82930;stroke-width:1.0;" width="6" x="288" y="439.5709"/><text fill="#000000" font-family="sans-serif" font-size="14" lengthAdjust="spacing" textLength="65" x="300" y="446.7995">title: string</text><rect fill="none" height="6" style="stroke:#C82930;stroke-width:1.0;" width="6" x="288" y="457.1803"/><text fill="#000000" font-family="sans-serif" font-size="14" lengthAdjust="spacing" textLength="126" x="300" y="464.4088">title_english?: string</text><rect fill="none" height="6" style="stroke:#C82930;stroke-width:1.0;" width="6" x="288" y="474.7897"/><text fill="#000000" font-family="sans-serif" font-size="14" lengthAdjust="spacing" textLength="131" x="300" y="482.0182">title_japanese: string</text><rect fill="none" height="6" style="stroke:#C82930;stroke-width:1.0;" width="6" x="288" y="492.3991"/><text fill="#000000" font-family="sans-serif" font-size="14" lengthAdjust="spacing" textLength="144" x="300" y="499.6276">title_synonyms: string[]</text><rect fill="none" height="6" style="stroke:#C82930;stroke-width:1.0;" width="6" x="288" y="510.0084"/><text fill="#000000" font-family="sans-serif" font-size="14" lengthAdjust="spacing" textLength="70" x="300" y="517.237">type: string</text><rect fill="none" height="6" style="stroke:#C82930;stroke-width:1.0;" width="6" x="288" y="527.6178"/><text fill="#000000" font-family="sans-serif" font-size="14" lengthAdjust="spacing" textLength="86" x="300" y="534.8463">source: string</text><rect fill="none" height="6" style="stroke:#C82930;stroke-width:1.0;" width="6" x="288" y="545.2272"/><text fill="#000000" font-family="sans-serif" font-size="14" lengthAdjust="spacing" textLength="121" x="300" y="552.4557">episodes?: number</text><rect fill="none" height="6" style="stroke:#C82930;stroke-width:1.0;" width="6" x="288" y="562.8366"/><text fill="#000000" font-family="sans-serif" font-size="14" lengthAdjust="spacing" textLength="81" x="300" y="570.0651">status: string</text><rect fill="none" height="6" style="stroke:#C82930;stroke-width:1.0;" width="6" x="288" y="580.4459"/><text fill="#000000" font-family="sans-serif" font-size="14" lengthAdjust="spacing" textLength="94" x="300" y="587.6745">airing: boolean</text><rect fill="none" height="6" style="stroke:#C82930;stroke-width:1.0;" width="6" x="288" y="598.0553"/><text fill="#000000" font-family="sans-serif" font-size="14" lengthAdjust="spacing" textLength="73" x="300" y="605.2838">aired: Aired</text><rect fill="none" height="6" style="stroke:#C82930;stroke-width:1.0;" width="6" x="288" y="615.6647"/><text fill="#000000" font-family="sans-serif" font-size="14" lengthAdjust="spacing" textLength="95" x="300" y="622.8932">duration: string</text><rect fill="none" height="6" style="stroke:#C82930;stroke-width:1.0;" width="6" x="288" y="633.2741"/><text fill="#000000" font-family="sans-serif" font-size="14" lengthAdjust="spacing" textLength="79" x="300" y="640.5026">rating: string</text><rect fill="none" height="6" style="stroke:#C82930;stroke-width:1.0;" width="6" x="288" y="650.8834"/><text fill="#000000" font-family="sans-serif" font-size="14" lengthAdjust="spacing" textLength="99" x="300" y="658.112">score?: number</text><rect fill="none" height="6" style="stroke:#C82930;stroke-width:1.0;" width="6" x="288" y="668.4928"/><text fill="#000000" font-family="sans-serif" font-size="14" lengthAdjust="spacing" textLength="130" x="300" y="675.7213">scored_by?: number</text><rect fill="none" height="6" style="stroke:#C82930;stroke-width:1.0;" width="6" x="288" y="686.1022"/><text fill="#000000" font-family="sans-serif" font-size="14" lengthAdjust="spacing" textLength="92" x="300" y="693.3307">rank?: number</text><rect fill="none" height="6" style="stroke:#C82930;stroke-width:1.0;" width="6" x="288" y="703.7116"/><text fill="#000000" font-family="sans-serif" font-size="14" lengthAdjust="spacing" textLength="118" x="300" y="710.9401">popularity: number</text><rect fill="none" height="6" style="stroke:#C82930;stroke-width:1.0;" width="6" x="288" y="721.3209"/><text fill="#000000" font-family="sans-serif" font-size="14" lengthAdjust="spacing" textLength="114" x="300" y="728.5495">members: number</text><rect fill="none" height="6" style="stroke:#C82930;stroke-width:1.0;" width="6" x="288" y="738.9303"/><text fill="#000000" font-family="sans-serif" font-size="14" lengthAdjust="spacing" textLength="110" x="300" y="746.1588">favorites: number</text><rect fill="none" height="6" style="stroke:#C82930;stroke-width:1.0;" width="6" x="288" y="756.5397"/><text fill="#000000" font-family="sans-serif" font-size="14" lengthAdjust="spacing" textLength="106" x="300" y="763.7682">synopsis?: string</text><rect fill="none" height="6" style="stroke:#C82930;stroke-width:1.0;" width="6" x="288" y="774.1491"/><text fill="#000000" font-family="sans-serif" font-size="14" lengthAdjust="spacing" textLength="126" x="300" y="781.3776">background?: string</text><rect fill="none" height="6" style="stroke:#C82930;stroke-width:1.0;" width="6" x="288" y="791.7584"/><text fill="#000000" font-family="sans-serif" font-size="14" lengthAdjust="spacing" textLength="97" x="300" y="798.987">season?: string</text><rect fill="none" height="6" style="stroke:#C82930;stroke-width:1.0;" width="6" x="288" y="809.3678"/><text fill="#000000" font-family="sans-serif" font-size="14" lengthAdjust="spacing" textLength="92" x="300" y="816.5963">year?: number</text><rect fill="none" height="6" style="stroke:#C82930;stroke-width:1.0;" width="6" x="288" y="826.9772"/><text fill="#000000" font-family="sans-serif" font-size="14" lengthAdjust="spacing" textLength="135" x="300" y="834.2057">broadcast: Broadcast</text><rect fill="none" height="6" style="stroke:#C82930;stroke-width:1.0;" width="6" x="288" y="844.5866"/><text fill="#000000" font-family="sans-serif" font-size="14" lengthAdjust="spacing" textLength="190" x="300" y="851.8151">producers: StudioInformation[]</text><rect fill="none" height="6" style="stroke:#C82930;stroke-width:1.0;" width="6" x="288" y="862.1959"/><text fill="#000000" font-family="sans-serif" font-size="14" lengthAdjust="spacing" textLength="182" x="300" y="869.4245">licensors: StudioInformation[]</text><rect fill="none" height="6" style="stroke:#C82930;stroke-width:1.0;" width="6" x="288" y="879.8053"/><text fill="#000000" font-family="sans-serif" font-size="14" lengthAdjust="spacing" textLength="171" x="300" y="887.0338">studios: StudioInformation[]</text><rect fill="none" height="6" style="stroke:#C82930;stroke-width:1.0;" width="6" x="288" y="897.4147"/><text fill="#000000" font-family="sans-serif" font-size="14" lengthAdjust="spacing" textLength="100" x="300" y="904.6432">genres: Genre[]</text><rect fill="none" height="6" style="stroke:#C82930;stroke-width:1.0;" width="6" x="288" y="915.0241"/><text fill="#000000" font-family="sans-serif" font-size="14" lengthAdjust="spacing" textLength="133" x="300" y="922.2526">explicit_genres: any[]</text><rect fill="none" height="6" style="stroke:#C82930;stroke-width:1.0;" width="6" x="288" y="932.6334"/><text fill="#000000" font-family="sans-serif" font-size="14" lengthAdjust="spacing" textLength="106" x="300" y="939.862">themes: Theme[]</text><rect fill="none" height="6" style="stroke:#C82930;stroke-width:1.0;" width="6" x="288" y="950.2428"/><text fill="#000000" font-family="sans-serif" font-size="14" lengthAdjust="spacing" textLength="215" x="300" y="957.4713">demographics: StudioInformation[]</text><rect fill="none" height="6" style="stroke:#C82930;stroke-width:1.0;" width="6" x="288" y="967.8522"/><text fill="#000000" font-family="sans-serif" font-size="14" lengthAdjust="spacing" textLength="97" x="300" y="975.0807">dialog: boolean</text><rect fill="none" height="6" style="stroke:#C82930;stroke-width:1.0;" width="6" x="288" y="985.4616"/><text fill="#000000" font-family="sans-serif" font-size="14" lengthAdjust="spacing" textLength="129" x="300" y="992.6901">isFavorite?: boolean</text><line style="stroke:#181818;stroke-width:0.5;" x1="281" x2="520" y1="999.7662" y2="999.7662"/></g><!--MD5=[e2ea792c72d70e491700007cb0f1c382]
class Images--><g id="elem_Images"><rect codeLine="68" fill="#F1F1F1" height="83.2188" id="Images" rx="2.5" ry="2.5" style="stroke:#181818;stroke-width:0.5;" width="150" x="238.5" y="1233.61"/><ellipse cx="286.75" cy="1249.61" fill="#ADD1B2" rx="11" ry="11" style="stroke:#181818;stroke-width:1.0;"/><path d="M289.5156,1245.485 Q289.6719,1245.2663 289.8594,1245.1569 Q290.0469,1245.0475 290.2656,1245.0475 Q290.6406,1245.0475 290.875,1245.3131 Q291.1094,1245.5631 291.1094,1246.1725 L291.1094,1247.6256 Q291.1094,1248.235 290.875,1248.5006 Q290.6406,1248.7663 290.2656,1248.7663 Q289.9219,1248.7663 289.7188,1248.5631 Q289.5156,1248.3756 289.4063,1247.86 Q289.3594,1247.5006 289.1719,1247.3131 Q288.8438,1246.9381 288.2344,1246.7194 Q287.625,1246.5006 287,1246.5006 Q286.2344,1246.5006 285.5938,1246.8288 Q284.9688,1247.1569 284.4688,1247.9069 Q283.9844,1248.6569 283.9844,1249.6881 L283.9844,1250.7819 Q283.9844,1252.0163 284.875,1252.8444 Q285.7656,1253.6569 287.3594,1253.6569 Q288.2969,1253.6569 288.9531,1253.4069 Q289.3438,1253.2506 289.7656,1252.8131 Q290.0313,1252.5475 290.1719,1252.4694 Q290.3281,1252.3913 290.5313,1252.3913 Q290.8594,1252.3913 291.1094,1252.6569 Q291.375,1252.9069 291.375,1253.2506 Q291.375,1253.5944 291.0313,1254.0006 Q290.5313,1254.5788 289.7344,1254.9069 Q288.6563,1255.36 287.3594,1255.36 Q285.8438,1255.36 284.6406,1254.735 Q283.6563,1254.235 282.9688,1253.1725 Q282.2813,1252.0944 282.2813,1250.8131 L282.2813,1249.6569 Q282.2813,1248.3288 282.8906,1247.1881 Q283.5156,1246.0319 284.6094,1245.4225 Q285.7031,1244.7975 286.9375,1244.7975 Q287.6719,1244.7975 288.3125,1244.9694 Q288.9688,1245.1256 289.5156,1245.485 Z " fill="#000000"/><text fill="#000000" font-family="sans-serif" font-size="14" lengthAdjust="spacing" textLength="45" x="307.25" y="1255.3385">Images</text><line style="stroke:#181818;stroke-width:0.5;" x1="239.5" x2="387.5" y1="1265.61" y2="1265.61"/><rect fill="none" height="6" style="stroke:#C82930;stroke-width:1.0;" width="6" x="246.5" y="1276.9147"/><text fill="#000000" font-family="sans-serif" font-size="14" lengthAdjust="spacing" textLength="110" x="258.5" y="1284.1432">jpg: MediaFormat</text><rect fill="none" height="6" style="stroke:#C82930;stroke-width:1.0;" width="6" x="246.5" y="1294.5241"/><text fill="#000000" font-family="sans-serif" font-size="14" lengthAdjust="spacing" textLength="124" x="258.5" y="1301.7526">webp: MediaFormat</text><line style="stroke:#181818;stroke-width:0.5;" x1="239.5" x2="387.5" y1="1308.8288" y2="1308.8288"/></g><!--MD5=[2e373978c0f64496b711b06d19f5fb5f]
class MediaFormat--><g id="elem_MediaFormat"><rect codeLine="73" fill="#F1F1F1" height="100.8281" id="MediaFormat" rx="2.5" ry="2.5" style="stroke:#181818;stroke-width:0.5;" width="171" x="225" y="1560.61"/><ellipse cx="265.2" cy="1576.61" fill="#ADD1B2" rx="11" ry="11" style="stroke:#181818;stroke-width:1.0;"/><path d="M267.9656,1572.485 Q268.1219,1572.2663 268.3094,1572.1569 Q268.4969,1572.0475 268.7156,1572.0475 Q269.0906,1572.0475 269.325,1572.3131 Q269.5594,1572.5631 269.5594,1573.1725 L269.5594,1574.6256 Q269.5594,1575.235 269.325,1575.5006 Q269.0906,1575.7663 268.7156,1575.7663 Q268.3719,1575.7663 268.1688,1575.5631 Q267.9656,1575.3756 267.8563,1574.86 Q267.8094,1574.5006 267.6219,1574.3131 Q267.2938,1573.9381 266.6844,1573.7194 Q266.075,1573.5006 265.45,1573.5006 Q264.6844,1573.5006 264.0438,1573.8288 Q263.4188,1574.1569 262.9188,1574.9069 Q262.4344,1575.6569 262.4344,1576.6881 L262.4344,1577.7819 Q262.4344,1579.0163 263.325,1579.8444 Q264.2156,1580.6569 265.8094,1580.6569 Q266.7469,1580.6569 267.4031,1580.4069 Q267.7938,1580.2506 268.2156,1579.8131 Q268.4813,1579.5475 268.6219,1579.4694 Q268.7781,1579.3913 268.9813,1579.3913 Q269.3094,1579.3913 269.5594,1579.6569 Q269.825,1579.9069 269.825,1580.2506 Q269.825,1580.5944 269.4813,1581.0006 Q268.9813,1581.5788 268.1844,1581.9069 Q267.1063,1582.36 265.8094,1582.36 Q264.2938,1582.36 263.0906,1581.735 Q262.1063,1581.235 261.4188,1580.1725 Q260.7313,1579.0944 260.7313,1577.8131 L260.7313,1576.6569 Q260.7313,1575.3288 261.3406,1574.1881 Q261.9656,1573.0319 263.0594,1572.4225 Q264.1531,1571.7975 265.3875,1571.7975 Q266.1219,1571.7975 266.7625,1571.9694 Q267.4188,1572.1256 267.9656,1572.485 Z " fill="#000000"/><text fill="#000000" font-family="sans-serif" font-size="14" lengthAdjust="spacing" textLength="83" x="284.8" y="1582.3385">MediaFormat</text><line style="stroke:#181818;stroke-width:0.5;" x1="226" x2="395" y1="1592.61" y2="1592.61"/><rect fill="none" height="6" style="stroke:#C82930;stroke-width:1.0;" width="6" x="233" y="1603.9147"/><text fill="#000000" font-family="sans-serif" font-size="14" lengthAdjust="spacing" textLength="105" x="245" y="1611.1432">image_url: string</text><rect fill="none" height="6" style="stroke:#C82930;stroke-width:1.0;" width="6" x="233" y="1621.5241"/><text fill="#000000" font-family="sans-serif" font-size="14" lengthAdjust="spacing" textLength="145" x="245" y="1628.7526">small_image_url: string</text><rect fill="none" height="6" style="stroke:#C82930;stroke-width:1.0;" width="6" x="233" y="1639.1334"/><text fill="#000000" font-family="sans-serif" font-size="14" lengthAdjust="spacing" textLength="145" x="245" y="1646.362">large_image_url: string</text><line style="stroke:#181818;stroke-width:0.5;" x1="226" x2="395" y1="1653.4381" y2="1653.4381"/></g><!--MD5=[1a80bc49bdb94a22cd4a92e00144cbec]
class Images2--><g id="elem_Images2"><rect codeLine="79" fill="#F1F1F1" height="136.0469" id="Images2" rx="2.5" ry="2.5" style="stroke:#181818;stroke-width:0.5;" width="205" x="370" y="1346.61"/><ellipse cx="441.75" cy="1362.61" fill="#ADD1B2" rx="11" ry="11" style="stroke:#181818;stroke-width:1.0;"/><path d="M444.5156,1358.485 Q444.6719,1358.2663 444.8594,1358.1569 Q445.0469,1358.0475 445.2656,1358.0475 Q445.6406,1358.0475 445.875,1358.3131 Q446.1094,1358.5631 446.1094,1359.1725 L446.1094,1360.6256 Q446.1094,1361.235 445.875,1361.5006 Q445.6406,1361.7663 445.2656,1361.7663 Q444.9219,1361.7663 444.7188,1361.5631 Q444.5156,1361.3756 444.4063,1360.86 Q444.3594,1360.5006 444.1719,1360.3131 Q443.8438,1359.9381 443.2344,1359.7194 Q442.625,1359.5006 442,1359.5006 Q441.2344,1359.5006 440.5938,1359.8288 Q439.9688,1360.1569 439.4688,1360.9069 Q438.9844,1361.6569 438.9844,1362.6881 L438.9844,1363.7819 Q438.9844,1365.0163 439.875,1365.8444 Q440.7656,1366.6569 442.3594,1366.6569 Q443.2969,1366.6569 443.9531,1366.4069 Q444.3438,1366.2506 444.7656,1365.8131 Q445.0313,1365.5475 445.1719,1365.4694 Q445.3281,1365.3913 445.5313,1365.3913 Q445.8594,1365.3913 446.1094,1365.6569 Q446.375,1365.9069 446.375,1366.2506 Q446.375,1366.5944 446.0313,1367.0006 Q445.5313,1367.5788 444.7344,1367.9069 Q443.6563,1368.36 442.3594,1368.36 Q440.8438,1368.36 439.6406,1367.735 Q438.6563,1367.235 437.9688,1366.1725 Q437.2813,1365.0944 437.2813,1363.8131 L437.2813,1362.6569 Q437.2813,1361.3288 437.8906,1360.1881 Q438.5156,1359.0319 439.6094,1358.4225 Q440.7031,1357.7975 441.9375,1357.7975 Q442.6719,1357.7975 443.3125,1357.9694 Q443.9688,1358.1256 444.5156,1358.485 Z " fill="#000000"/><text fill="#000000" font-family="sans-serif" font-size="14" lengthAdjust="spacing" textLength="53" x="462.25" y="1368.3385">Images2</text><line style="stroke:#181818;stroke-width:0.5;" x1="371" x2="574" y1="1378.61" y2="1378.61"/><rect fill="none" height="6" style="stroke:#C82930;stroke-width:1.0;" width="6" x="378" y="1389.9147"/><text fill="#000000" font-family="sans-serif" font-size="14" lengthAdjust="spacing" textLength="170" x="390" y="1397.1432">medium_image_url?: string</text><rect fill="none" height="6" style="stroke:#C82930;stroke-width:1.0;" width="6" x="378" y="1407.5241"/><text fill="#000000" font-family="sans-serif" font-size="14" lengthAdjust="spacing" textLength="179" x="390" y="1414.7526">maximum_image_url?: string</text><rect fill="none" height="6" style="stroke:#C82930;stroke-width:1.0;" width="6" x="378" y="1425.1334"/><text fill="#000000" font-family="sans-serif" font-size="14" lengthAdjust="spacing" textLength="113" x="390" y="1432.362">image_url?: string</text><rect fill="none" height="6" style="stroke:#C82930;stroke-width:1.0;" width="6" x="378" y="1442.7428"/><text fill="#000000" font-family="sans-serif" font-size="14" lengthAdjust="spacing" textLength="153" x="390" y="1449.9713">small_image_url?: string</text><rect fill="none" height="6" style="stroke:#C82930;stroke-width:1.0;" width="6" x="378" y="1460.3522"/><text fill="#000000" font-family="sans-serif" font-size="14" lengthAdjust="spacing" textLength="153" x="390" y="1467.5807">large_image_url?: string</text><line style="stroke:#181818;stroke-width:0.5;" x1="371" x2="574" y1="1474.6569" y2="1474.6569"/></g><!--MD5=[e65e6d38455b41cf3bfbebe5b46c38ff]
class Trailer--><g id="elem_Trailer"><rect codeLine="87" fill="#F1F1F1" height="118.4375" id="Trailer" rx="2.5" ry="2.5" style="stroke:#181818;stroke-width:0.5;" width="147" x="387" y="1085.61"/><ellipse cx="435.75" cy="1101.61" fill="#ADD1B2" rx="11" ry="11" style="stroke:#181818;stroke-width:1.0;"/><path d="M438.5156,1097.485 Q438.6719,1097.2663 438.8594,1097.1569 Q439.0469,1097.0475 439.2656,1097.0475 Q439.6406,1097.0475 439.875,1097.3131 Q440.1094,1097.5631 440.1094,1098.1725 L440.1094,1099.6256 Q440.1094,1100.235 439.875,1100.5006 Q439.6406,1100.7663 439.2656,1100.7663 Q438.9219,1100.7663 438.7188,1100.5631 Q438.5156,1100.3756 438.4063,1099.86 Q438.3594,1099.5006 438.1719,1099.3131 Q437.8438,1098.9381 437.2344,1098.7194 Q436.625,1098.5006 436,1098.5006 Q435.2344,1098.5006 434.5938,1098.8288 Q433.9688,1099.1569 433.4688,1099.9069 Q432.9844,1100.6569 432.9844,1101.6881 L432.9844,1102.7819 Q432.9844,1104.0163 433.875,1104.8444 Q434.7656,1105.6569 436.3594,1105.6569 Q437.2969,1105.6569 437.9531,1105.4069 Q438.3438,1105.2506 438.7656,1104.8131 Q439.0313,1104.5475 439.1719,1104.4694 Q439.3281,1104.3913 439.5313,1104.3913 Q439.8594,1104.3913 440.1094,1104.6569 Q440.375,1104.9069 440.375,1105.2506 Q440.375,1105.5944 440.0313,1106.0006 Q439.5313,1106.5788 438.7344,1106.9069 Q437.6563,1107.36 436.3594,1107.36 Q434.8438,1107.36 433.6406,1106.735 Q432.6563,1106.235 431.9688,1105.1725 Q431.2813,1104.0944 431.2813,1102.8131 L431.2813,1101.6569 Q431.2813,1100.3288 431.8906,1099.1881 Q432.5156,1098.0319 433.6094,1097.4225 Q434.7031,1096.7975 435.9375,1096.7975 Q436.6719,1096.7975 437.3125,1096.9694 Q437.9688,1097.1256 438.5156,1097.485 Z " fill="#000000"/><text fill="#000000" font-family="sans-serif" font-size="14" lengthAdjust="spacing" textLength="41" x="456.25" y="1107.3385">Trailer</text><line style="stroke:#181818;stroke-width:0.5;" x1="388" x2="533" y1="1117.61" y2="1117.61"/><rect fill="none" height="6" style="stroke:#C82930;stroke-width:1.0;" width="6" x="395" y="1128.9147"/><text fill="#000000" font-family="sans-serif" font-size="14" lengthAdjust="spacing" textLength="121" x="407" y="1136.1432">youtube_id?: string</text><rect fill="none" height="6" style="stroke:#C82930;stroke-width:1.0;" width="6" x="395" y="1146.5241"/><text fill="#000000" font-family="sans-serif" font-size="14" lengthAdjust="spacing" textLength="67" x="407" y="1153.7526">url?: string</text><rect fill="none" height="6" style="stroke:#C82930;stroke-width:1.0;" width="6" x="395" y="1164.1334"/><text fill="#000000" font-family="sans-serif" font-size="14" lengthAdjust="spacing" textLength="118" x="407" y="1171.362">embed_url?: string</text><rect fill="none" height="6" style="stroke:#C82930;stroke-width:1.0;" width="6" x="395" y="1181.7428"/><text fill="#000000" font-family="sans-serif" font-size="14" lengthAdjust="spacing" textLength="106" x="407" y="1188.9713">images: Images2</text><line style="stroke:#181818;stroke-width:0.5;" x1="388" x2="533" y1="1196.0475" y2="1196.0475"/></g><!--MD5=[f375b3d0fae4d15774812e930c824519]
class Genre--><g id="elem_Genre"><rect codeLine="94" fill="#F1F1F1" height="118.4375" id="Genre" rx="2.5" ry="2.5" style="stroke:#181818;stroke-width:0.5;" width="123" x="956" y="76.61"/><ellipse cx="993.95" cy="92.61" fill="#ADD1B2" rx="11" ry="11" style="stroke:#181818;stroke-width:1.0;"/><path d="M996.7156,88.485 Q996.8719,88.2662 997.0594,88.1569 Q997.2469,88.0475 997.4656,88.0475 Q997.8406,88.0475 998.075,88.3131 Q998.3094,88.5631 998.3094,89.1725 L998.3094,90.6256 Q998.3094,91.235 998.075,91.5006 Q997.8406,91.7662 997.4656,91.7662 Q997.1219,91.7662 996.9188,91.5631 Q996.7156,91.3756 996.6063,90.86 Q996.5594,90.5006 996.3719,90.3131 Q996.0438,89.9381 995.4344,89.7194 Q994.825,89.5006 994.2,89.5006 Q993.4344,89.5006 992.7938,89.8287 Q992.1688,90.1569 991.6688,90.9069 Q991.1844,91.6569 991.1844,92.6881 L991.1844,93.7819 Q991.1844,95.0162 992.075,95.8444 Q992.9656,96.6569 994.5594,96.6569 Q995.4969,96.6569 996.1531,96.4069 Q996.5438,96.2506 996.9656,95.8131 Q997.2313,95.5475 997.3719,95.4694 Q997.5281,95.3912 997.7313,95.3912 Q998.0594,95.3912 998.3094,95.6569 Q998.575,95.9069 998.575,96.2506 Q998.575,96.5944 998.2313,97.0006 Q997.7313,97.5787 996.9344,97.9069 Q995.8563,98.36 994.5594,98.36 Q993.0438,98.36 991.8406,97.735 Q990.8563,97.235 990.1688,96.1725 Q989.4813,95.0944 989.4813,93.8131 L989.4813,92.6569 Q989.4813,91.3287 990.0906,90.1881 Q990.7156,89.0319 991.8094,88.4225 Q992.9031,87.7975 994.1375,87.7975 Q994.8719,87.7975 995.5125,87.9694 Q996.1688,88.1256 996.7156,88.485 Z " fill="#000000"/><text fill="#000000" font-family="sans-serif" font-size="14" lengthAdjust="spacing" textLength="40" x="1013.05" y="98.3385">Genre</text><line style="stroke:#181818;stroke-width:0.5;" x1="957" x2="1078" y1="108.61" y2="108.61"/><rect fill="none" height="6" style="stroke:#C82930;stroke-width:1.0;" width="6" x="964" y="119.9147"/><text fill="#000000" font-family="sans-serif" font-size="14" lengthAdjust="spacing" textLength="97" x="976" y="127.1432">mal_id: number</text><rect fill="none" height="6" style="stroke:#C82930;stroke-width:1.0;" width="6" x="964" y="137.5241"/><text fill="#000000" font-family="sans-serif" font-size="14" lengthAdjust="spacing" textLength="70" x="976" y="144.7526">type: string</text><rect fill="none" height="6" style="stroke:#C82930;stroke-width:1.0;" width="6" x="964" y="155.1334"/><text fill="#000000" font-family="sans-serif" font-size="14" lengthAdjust="spacing" textLength="78" x="976" y="162.362">name: string</text><rect fill="none" height="6" style="stroke:#C82930;stroke-width:1.0;" width="6" x="964" y="172.7428"/><text fill="#000000" font-family="sans-serif" font-size="14" lengthAdjust="spacing" textLength="59" x="976" y="179.9713">url: string</text><line style="stroke:#181818;stroke-width:0.5;" x1="957" x2="1078" y1="187.0475" y2="187.0475"/></g><!--MD5=[bbad56bc7779fe6d833d77eae0c25c05]
class Theme--><g id="elem_Theme"><rect codeLine="101" fill="#F1F1F1" height="118.4375" id="Theme" rx="2.5" ry="2.5" style="stroke:#181818;stroke-width:0.5;" width="123" x="1114" y="76.61"/><ellipse cx="1150.15" cy="92.61" fill="#ADD1B2" rx="11" ry="11" style="stroke:#181818;stroke-width:1.0;"/><path d="M1152.9156,88.485 Q1153.0719,88.2662 1153.2594,88.1569 Q1153.4469,88.0475 1153.6656,88.0475 Q1154.0406,88.0475 1154.275,88.3131 Q1154.5094,88.5631 1154.5094,89.1725 L1154.5094,90.6256 Q1154.5094,91.235 1154.275,91.5006 Q1154.0406,91.7662 1153.6656,91.7662 Q1153.3219,91.7662 1153.1188,91.5631 Q1152.9156,91.3756 1152.8063,90.86 Q1152.7594,90.5006 1152.5719,90.3131 Q1152.2438,89.9381 1151.6344,89.7194 Q1151.025,89.5006 1150.4,89.5006 Q1149.6344,89.5006 1148.9938,89.8287 Q1148.3688,90.1569 1147.8688,90.9069 Q1147.3844,91.6569 1147.3844,92.6881 L1147.3844,93.7819 Q1147.3844,95.0162 1148.275,95.8444 Q1149.1656,96.6569 1150.7594,96.6569 Q1151.6969,96.6569 1152.3531,96.4069 Q1152.7438,96.2506 1153.1656,95.8131 Q1153.4313,95.5475 1153.5719,95.4694 Q1153.7281,95.3912 1153.9313,95.3912 Q1154.2594,95.3912 1154.5094,95.6569 Q1154.775,95.9069 1154.775,96.2506 Q1154.775,96.5944 1154.4313,97.0006 Q1153.9313,97.5787 1153.1344,97.9069 Q1152.0563,98.36 1150.7594,98.36 Q1149.2438,98.36 1148.0406,97.735 Q1147.0563,97.235 1146.3688,96.1725 Q1145.6813,95.0944 1145.6813,93.8131 L1145.6813,92.6569 Q1145.6813,91.3287 1146.2906,90.1881 Q1146.9156,89.0319 1148.0094,88.4225 Q1149.1031,87.7975 1150.3375,87.7975 Q1151.0719,87.7975 1151.7125,87.9694 Q1152.3688,88.1256 1152.9156,88.485 Z " fill="#000000"/><text fill="#000000" font-family="sans-serif" font-size="14" lengthAdjust="spacing" textLength="44" x="1168.85" y="98.3385">Theme</text><line style="stroke:#181818;stroke-width:0.5;" x1="1115" x2="1236" y1="108.61" y2="108.61"/><rect fill="none" height="6" style="stroke:#C82930;stroke-width:1.0;" width="6" x="1122" y="119.9147"/><text fill="#000000" font-family="sans-serif" font-size="14" lengthAdjust="spacing" textLength="97" x="1134" y="127.1432">mal_id: number</text><rect fill="none" height="6" style="stroke:#C82930;stroke-width:1.0;" width="6" x="1122" y="137.5241"/><text fill="#000000" font-family="sans-serif" font-size="14" lengthAdjust="spacing" textLength="70" x="1134" y="144.7526">type: string</text><rect fill="none" height="6" style="stroke:#C82930;stroke-width:1.0;" width="6" x="1122" y="155.1334"/><text fill="#000000" font-family="sans-serif" font-size="14" lengthAdjust="spacing" textLength="78" x="1134" y="162.362">name: string</text><rect fill="none" height="6" style="stroke:#C82930;stroke-width:1.0;" width="6" x="1122" y="172.7428"/><text fill="#000000" font-family="sans-serif" font-size="14" lengthAdjust="spacing" textLength="59" x="1134" y="179.9713">url: string</text><line style="stroke:#181818;stroke-width:0.5;" x1="1115" x2="1236" y1="187.0475" y2="187.0475"/></g><!--MD5=[90111e5cdc788a7ef73a3273c23dcc2b]
class Title--><g id="elem_Title"><rect codeLine="108" fill="#F1F1F1" height="83.2188" id="Title" rx="2.5" ry="2.5" style="stroke:#181818;stroke-width:0.5;" width="96" x="1272.5" y="94.11"/><ellipse cx="1304.15" cy="110.11" fill="#ADD1B2" rx="11" ry="11" style="stroke:#181818;stroke-width:1.0;"/><path d="M1306.9156,105.985 Q1307.0719,105.7662 1307.2594,105.6569 Q1307.4469,105.5475 1307.6656,105.5475 Q1308.0406,105.5475 1308.275,105.8131 Q1308.5094,106.0631 1308.5094,106.6725 L1308.5094,108.1256 Q1308.5094,108.735 1308.275,109.0006 Q1308.0406,109.2662 1307.6656,109.2662 Q1307.3219,109.2662 1307.1188,109.0631 Q1306.9156,108.8756 1306.8063,108.36 Q1306.7594,108.0006 1306.5719,107.8131 Q1306.2438,107.4381 1305.6344,107.2194 Q1305.025,107.0006 1304.4,107.0006 Q1303.6344,107.0006 1302.9938,107.3287 Q1302.3688,107.6569 1301.8688,108.4069 Q1301.3844,109.1569 1301.3844,110.1881 L1301.3844,111.2819 Q1301.3844,112.5162 1302.275,113.3444 Q1303.1656,114.1569 1304.7594,114.1569 Q1305.6969,114.1569 1306.3531,113.9069 Q1306.7438,113.7506 1307.1656,113.3131 Q1307.4313,113.0475 1307.5719,112.9694 Q1307.7281,112.8912 1307.9313,112.8912 Q1308.2594,112.8912 1308.5094,113.1569 Q1308.775,113.4069 1308.775,113.7506 Q1308.775,114.0944 1308.4313,114.5006 Q1307.9313,115.0787 1307.1344,115.4069 Q1306.0563,115.86 1304.7594,115.86 Q1303.2438,115.86 1302.0406,115.235 Q1301.0563,114.735 1300.3688,113.6725 Q1299.6813,112.5944 1299.6813,111.3131 L1299.6813,110.1569 Q1299.6813,108.8287 1300.2906,107.6881 Q1300.9156,106.5319 1302.0094,105.9225 Q1303.1031,105.2975 1304.3375,105.2975 Q1305.0719,105.2975 1305.7125,105.4694 Q1306.3688,105.6256 1306.9156,105.985 Z " fill="#000000"/><text fill="#000000" font-family="sans-serif" font-size="14" lengthAdjust="spacing" textLength="27" x="1321.85" y="115.8385">Title</text><line style="stroke:#181818;stroke-width:0.5;" x1="1273.5" x2="1367.5" y1="126.11" y2="126.11"/><rect fill="none" height="6" style="stroke:#C82930;stroke-width:1.0;" width="6" x="1280.5" y="137.4147"/><text fill="#000000" font-family="sans-serif" font-size="14" lengthAdjust="spacing" textLength="70" x="1292.5" y="144.6432">type: string</text><rect fill="none" height="6" style="stroke:#C82930;stroke-width:1.0;" width="6" x="1280.5" y="155.0241"/><text fill="#000000" font-family="sans-serif" font-size="14" lengthAdjust="spacing" textLength="65" x="1292.5" y="162.2526">title: string</text><line style="stroke:#181818;stroke-width:0.5;" x1="1273.5" x2="1367.5" y1="169.3287" y2="169.3287"/></g><!--MD5=[5a9b3b58668a22bfb91689003c87ce1d]
class Aired--><g id="elem_Aired"><rect codeLine="113" fill="#F1F1F1" height="118.4375" id="Aired" rx="2.5" ry="2.5" style="stroke:#181818;stroke-width:0.5;" width="105" x="789" y="590.11"/><ellipse cx="822" cy="606.11" fill="#ADD1B2" rx="11" ry="11" style="stroke:#181818;stroke-width:1.0;"/><path d="M824.7656,601.985 Q824.9219,601.7662 825.1094,601.6569 Q825.2969,601.5475 825.5156,601.5475 Q825.8906,601.5475 826.125,601.8131 Q826.3594,602.0631 826.3594,602.6725 L826.3594,604.1256 Q826.3594,604.735 826.125,605.0006 Q825.8906,605.2662 825.5156,605.2662 Q825.1719,605.2662 824.9688,605.0631 Q824.7656,604.8756 824.6563,604.36 Q824.6094,604.0006 824.4219,603.8131 Q824.0938,603.4381 823.4844,603.2194 Q822.875,603.0006 822.25,603.0006 Q821.4844,603.0006 820.8438,603.3287 Q820.2188,603.6569 819.7188,604.4069 Q819.2344,605.1569 819.2344,606.1881 L819.2344,607.2819 Q819.2344,608.5162 820.125,609.3444 Q821.0156,610.1569 822.6094,610.1569 Q823.5469,610.1569 824.2031,609.9069 Q824.5938,609.7506 825.0156,609.3131 Q825.2813,609.0475 825.4219,608.9694 Q825.5781,608.8912 825.7813,608.8912 Q826.1094,608.8912 826.3594,609.1569 Q826.625,609.4069 826.625,609.7506 Q826.625,610.0944 826.2813,610.5006 Q825.7813,611.0787 824.9844,611.4069 Q823.9063,611.86 822.6094,611.86 Q821.0938,611.86 819.8906,611.235 Q818.9063,610.735 818.2188,609.6725 Q817.5313,608.5944 817.5313,607.3131 L817.5313,606.1569 Q817.5313,604.8287 818.1406,603.6881 Q818.7656,602.5319 819.8594,601.9225 Q820.9531,601.2975 822.1875,601.2975 Q822.9219,601.2975 823.5625,601.4694 Q824.2188,601.6256 824.7656,601.985 Z " fill="#000000"/><text fill="#000000" font-family="sans-serif" font-size="14" lengthAdjust="spacing" textLength="33" x="840" y="611.8385">Aired</text><line style="stroke:#181818;stroke-width:0.5;" x1="790" x2="893" y1="622.11" y2="622.11"/><rect fill="none" height="6" style="stroke:#C82930;stroke-width:1.0;" width="6" x="797" y="633.4147"/><text fill="#000000" font-family="sans-serif" font-size="14" lengthAdjust="spacing" textLength="79" x="809" y="640.6432">from?: string</text><rect fill="none" height="6" style="stroke:#C82930;stroke-width:1.0;" width="6" x="797" y="651.0241"/><text fill="#000000" font-family="sans-serif" font-size="14" lengthAdjust="spacing" textLength="63" x="809" y="658.2526">to?: string</text><rect fill="none" height="6" style="stroke:#C82930;stroke-width:1.0;" width="6" x="797" y="668.6334"/><text fill="#000000" font-family="sans-serif" font-size="14" lengthAdjust="spacing" textLength="67" x="809" y="675.862">prop: Prop</text><rect fill="none" height="6" style="stroke:#C82930;stroke-width:1.0;" width="6" x="797" y="686.2428"/><text fill="#000000" font-family="sans-serif" font-size="14" lengthAdjust="spacing" textLength="78" x="809" y="693.4713">string: string</text><line style="stroke:#181818;stroke-width:0.5;" x1="790" x2="893" y1="700.5475" y2="700.5475"/></g><!--MD5=[8d04b4d58a91e4266bdb1f5129e38805]
class Prop--><g id="elem_Prop"><rect codeLine="120" fill="#F1F1F1" height="83.2188" id="Prop" rx="2.5" ry="2.5" style="stroke:#181818;stroke-width:0.5;" width="125" x="929" y="607.61"/><ellipse cx="972.35" cy="623.61" fill="#ADD1B2" rx="11" ry="11" style="stroke:#181818;stroke-width:1.0;"/><path d="M975.1156,619.485 Q975.2719,619.2662 975.4594,619.1569 Q975.6469,619.0475 975.8656,619.0475 Q976.2406,619.0475 976.475,619.3131 Q976.7094,619.5631 976.7094,620.1725 L976.7094,621.6256 Q976.7094,622.235 976.475,622.5006 Q976.2406,622.7662 975.8656,622.7662 Q975.5219,622.7662 975.3188,622.5631 Q975.1156,622.3756 975.0063,621.86 Q974.9594,621.5006 974.7719,621.3131 Q974.4438,620.9381 973.8344,620.7194 Q973.225,620.5006 972.6,620.5006 Q971.8344,620.5006 971.1938,620.8287 Q970.5688,621.1569 970.0688,621.9069 Q969.5844,622.6569 969.5844,623.6881 L969.5844,624.7819 Q969.5844,626.0162 970.475,626.8444 Q971.3656,627.6569 972.9594,627.6569 Q973.8969,627.6569 974.5531,627.4069 Q974.9438,627.2506 975.3656,626.8131 Q975.6313,626.5475 975.7719,626.4694 Q975.9281,626.3912 976.1313,626.3912 Q976.4594,626.3912 976.7094,626.6569 Q976.975,626.9069 976.975,627.2506 Q976.975,627.5944 976.6313,628.0006 Q976.1313,628.5787 975.3344,628.9069 Q974.2563,629.36 972.9594,629.36 Q971.4438,629.36 970.2406,628.735 Q969.2563,628.235 968.5688,627.1725 Q967.8813,626.0944 967.8813,624.8131 L967.8813,623.6569 Q967.8813,622.3287 968.4906,621.1881 Q969.1156,620.0319 970.2094,619.4225 Q971.3031,618.7975 972.5375,618.7975 Q973.2719,618.7975 973.9125,618.9694 Q974.5688,619.1256 975.1156,619.485 Z " fill="#000000"/><text fill="#000000" font-family="sans-serif" font-size="14" lengthAdjust="spacing" textLength="30" x="992.65" y="629.3385">Prop</text><line style="stroke:#181818;stroke-width:0.5;" x1="930" x2="1053" y1="639.61" y2="639.61"/><rect fill="none" height="6" style="stroke:#C82930;stroke-width:1.0;" width="6" x="937" y="650.9147"/><text fill="#000000" font-family="sans-serif" font-size="14" lengthAdjust="spacing" textLength="99" x="949" y="658.1432">from: FromDate</text><rect fill="none" height="6" style="stroke:#C82930;stroke-width:1.0;" width="6" x="937" y="668.5241"/><text fill="#000000" font-family="sans-serif" font-size="14" lengthAdjust="spacing" textLength="37" x="949" y="675.7526">to: To</text><line style="stroke:#181818;stroke-width:0.5;" x1="930" x2="1053" y1="682.8287" y2="682.8287"/></g><!--MD5=[3d26bd511fda09d86e881e0929828ffb]
class FromDate--><g id="elem_FromDate"><rect codeLine="125" fill="#F1F1F1" height="100.8281" id="FromDate" rx="2.5" ry="2.5" style="stroke:#181818;stroke-width:0.5;" width="129" x="1089" y="598.61"/><ellipse cx="1119.3" cy="614.61" fill="#ADD1B2" rx="11" ry="11" style="stroke:#181818;stroke-width:1.0;"/><path d="M1122.0656,610.485 Q1122.2219,610.2662 1122.4094,610.1569 Q1122.5969,610.0475 1122.8156,610.0475 Q1123.1906,610.0475 1123.425,610.3131 Q1123.6594,610.5631 1123.6594,611.1725 L1123.6594,612.6256 Q1123.6594,613.235 1123.425,613.5006 Q1123.1906,613.7662 1122.8156,613.7662 Q1122.4719,613.7662 1122.2688,613.5631 Q1122.0656,613.3756 1121.9563,612.86 Q1121.9094,612.5006 1121.7219,612.3131 Q1121.3938,611.9381 1120.7844,611.7194 Q1120.175,611.5006 1119.55,611.5006 Q1118.7844,611.5006 1118.1438,611.8287 Q1117.5188,612.1569 1117.0188,612.9069 Q1116.5344,613.6569 1116.5344,614.6881 L1116.5344,615.7819 Q1116.5344,617.0162 1117.425,617.8444 Q1118.3156,618.6569 1119.9094,618.6569 Q1120.8469,618.6569 1121.5031,618.4069 Q1121.8938,618.2506 1122.3156,617.8131 Q1122.5813,617.5475 1122.7219,617.4694 Q1122.8781,617.3912 1123.0813,617.3912 Q1123.4094,617.3912 1123.6594,617.6569 Q1123.925,617.9069 1123.925,618.2506 Q1123.925,618.5944 1123.5813,619.0006 Q1123.0813,619.5787 1122.2844,619.9069 Q1121.2063,620.36 1119.9094,620.36 Q1118.3938,620.36 1117.1906,619.735 Q1116.2063,619.235 1115.5188,618.1725 Q1114.8313,617.0944 1114.8313,615.8131 L1114.8313,614.6569 Q1114.8313,613.3287 1115.4406,612.1881 Q1116.0656,611.0319 1117.1594,610.4225 Q1118.2531,609.7975 1119.4875,609.7975 Q1120.2219,609.7975 1120.8625,609.9694 Q1121.5188,610.1256 1122.0656,610.485 Z " fill="#000000"/><text fill="#000000" font-family="sans-serif" font-size="14" lengthAdjust="spacing" textLength="63" x="1136.7" y="620.3385">FromDate</text><line style="stroke:#181818;stroke-width:0.5;" x1="1090" x2="1217" y1="630.61" y2="630.61"/><rect fill="none" height="6" style="stroke:#C82930;stroke-width:1.0;" width="6" x="1097" y="641.9147"/><text fill="#000000" font-family="sans-serif" font-size="14" lengthAdjust="spacing" textLength="87" x="1109" y="649.1432">day?: number</text><rect fill="none" height="6" style="stroke:#C82930;stroke-width:1.0;" width="6" x="1097" y="659.5241"/><text fill="#000000" font-family="sans-serif" font-size="14" lengthAdjust="spacing" textLength="103" x="1109" y="666.7526">month?: number</text><rect fill="none" height="6" style="stroke:#C82930;stroke-width:1.0;" width="6" x="1097" y="677.1334"/><text fill="#000000" font-family="sans-serif" font-size="14" lengthAdjust="spacing" textLength="92" x="1109" y="684.362">year?: number</text><line style="stroke:#181818;stroke-width:0.5;" x1="1090" x2="1217" y1="691.4381" y2="691.4381"/></g><!--MD5=[4cfc67d88e567144f44b5694dc770d34]
class To--><g id="elem_To"><rect codeLine="131" fill="#F1F1F1" height="100.8281" id="To" rx="2.5" ry="2.5" style="stroke:#181818;stroke-width:0.5;" width="129" x="1253" y="598.61"/><ellipse cx="1304.75" cy="614.61" fill="#ADD1B2" rx="11" ry="11" style="stroke:#181818;stroke-width:1.0;"/><path d="M1307.5156,610.485 Q1307.6719,610.2662 1307.8594,610.1569 Q1308.0469,610.0475 1308.2656,610.0475 Q1308.6406,610.0475 1308.875,610.3131 Q1309.1094,610.5631 1309.1094,611.1725 L1309.1094,612.6256 Q1309.1094,613.235 1308.875,613.5006 Q1308.6406,613.7662 1308.2656,613.7662 Q1307.9219,613.7662 1307.7188,613.5631 Q1307.5156,613.3756 1307.4063,612.86 Q1307.3594,612.5006 1307.1719,612.3131 Q1306.8438,611.9381 1306.2344,611.7194 Q1305.625,611.5006 1305,611.5006 Q1304.2344,611.5006 1303.5938,611.8287 Q1302.9688,612.1569 1302.4688,612.9069 Q1301.9844,613.6569 1301.9844,614.6881 L1301.9844,615.7819 Q1301.9844,617.0162 1302.875,617.8444 Q1303.7656,618.6569 1305.3594,618.6569 Q1306.2969,618.6569 1306.9531,618.4069 Q1307.3438,618.2506 1307.7656,617.8131 Q1308.0313,617.5475 1308.1719,617.4694 Q1308.3281,617.3912 1308.5313,617.3912 Q1308.8594,617.3912 1309.1094,617.6569 Q1309.375,617.9069 1309.375,618.2506 Q1309.375,618.5944 1309.0313,619.0006 Q1308.5313,619.5787 1307.7344,619.9069 Q1306.6563,620.36 1305.3594,620.36 Q1303.8438,620.36 1302.6406,619.735 Q1301.6563,619.235 1300.9688,618.1725 Q1300.2813,617.0944 1300.2813,615.8131 L1300.2813,614.6569 Q1300.2813,613.3287 1300.8906,612.1881 Q1301.5156,611.0319 1302.6094,610.4225 Q1303.7031,609.7975 1304.9375,609.7975 Q1305.6719,609.7975 1306.3125,609.9694 Q1306.9688,610.1256 1307.5156,610.485 Z " fill="#000000"/><text fill="#000000" font-family="sans-serif" font-size="14" lengthAdjust="spacing" textLength="17" x="1325.25" y="620.3385">To</text><line style="stroke:#181818;stroke-width:0.5;" x1="1254" x2="1381" y1="630.61" y2="630.61"/><rect fill="none" height="6" style="stroke:#C82930;stroke-width:1.0;" width="6" x="1261" y="641.9147"/><text fill="#000000" font-family="sans-serif" font-size="14" lengthAdjust="spacing" textLength="87" x="1273" y="649.1432">day?: number</text><rect fill="none" height="6" style="stroke:#C82930;stroke-width:1.0;" width="6" x="1261" y="659.5241"/><text fill="#000000" font-family="sans-serif" font-size="14" lengthAdjust="spacing" textLength="103" x="1273" y="666.7526">month?: number</text><rect fill="none" height="6" style="stroke:#C82930;stroke-width:1.0;" width="6" x="1261" y="677.1334"/><text fill="#000000" font-family="sans-serif" font-size="14" lengthAdjust="spacing" textLength="92" x="1273" y="684.362">year?: number</text><line style="stroke:#181818;stroke-width:0.5;" x1="1254" x2="1381" y1="691.4381" y2="691.4381"/></g><!--MD5=[66c7b72d5fd996439b55bab4eb3f5e0e]
class Broadcast--><g id="elem_Broadcast"><rect codeLine="137" fill="#F1F1F1" height="118.4375" id="Broadcast" rx="2.5" ry="2.5" style="stroke:#181818;stroke-width:0.5;" width="133" x="775" y="1085.61"/><ellipse cx="806.65" cy="1101.61" fill="#ADD1B2" rx="11" ry="11" style="stroke:#181818;stroke-width:1.0;"/><path d="M809.4156,1097.485 Q809.5719,1097.2663 809.7594,1097.1569 Q809.9469,1097.0475 810.1656,1097.0475 Q810.5406,1097.0475 810.775,1097.3131 Q811.0094,1097.5631 811.0094,1098.1725 L811.0094,1099.6256 Q811.0094,1100.235 810.775,1100.5006 Q810.5406,1100.7663 810.1656,1100.7663 Q809.8219,1100.7663 809.6188,1100.5631 Q809.4156,1100.3756 809.3063,1099.86 Q809.2594,1099.5006 809.0719,1099.3131 Q808.7438,1098.9381 808.1344,1098.7194 Q807.525,1098.5006 806.9,1098.5006 Q806.1344,1098.5006 805.4938,1098.8288 Q804.8688,1099.1569 804.3688,1099.9069 Q803.8844,1100.6569 803.8844,1101.6881 L803.8844,1102.7819 Q803.8844,1104.0163 804.775,1104.8444 Q805.6656,1105.6569 807.2594,1105.6569 Q808.1969,1105.6569 808.8531,1105.4069 Q809.2438,1105.2506 809.6656,1104.8131 Q809.9313,1104.5475 810.0719,1104.4694 Q810.2281,1104.3913 810.4313,1104.3913 Q810.7594,1104.3913 811.0094,1104.6569 Q811.275,1104.9069 811.275,1105.2506 Q811.275,1105.5944 810.9313,1106.0006 Q810.4313,1106.5788 809.6344,1106.9069 Q808.5563,1107.36 807.2594,1107.36 Q805.7438,1107.36 804.5406,1106.735 Q803.5563,1106.235 802.8688,1105.1725 Q802.1813,1104.0944 802.1813,1102.8131 L802.1813,1101.6569 Q802.1813,1100.3288 802.7906,1099.1881 Q803.4156,1098.0319 804.5094,1097.4225 Q805.6031,1096.7975 806.8375,1096.7975 Q807.5719,1096.7975 808.2125,1096.9694 Q808.8688,1097.1256 809.4156,1097.485 Z " fill="#000000"/><text fill="#000000" font-family="sans-serif" font-size="14" lengthAdjust="spacing" textLength="64" x="824.35" y="1107.3385">Broadcast</text><line style="stroke:#181818;stroke-width:0.5;" x1="776" x2="907" y1="1117.61" y2="1117.61"/><rect fill="none" height="6" style="stroke:#C82930;stroke-width:1.0;" width="6" x="783" y="1128.9147"/><text fill="#000000" font-family="sans-serif" font-size="14" lengthAdjust="spacing" textLength="74" x="795" y="1136.1432">day?: string</text><rect fill="none" height="6" style="stroke:#C82930;stroke-width:1.0;" width="6" x="783" y="1146.5241"/><text fill="#000000" font-family="sans-serif" font-size="14" lengthAdjust="spacing" textLength="77" x="795" y="1153.7526">time?: string</text><rect fill="none" height="6" style="stroke:#C82930;stroke-width:1.0;" width="6" x="783" y="1164.1334"/><text fill="#000000" font-family="sans-serif" font-size="14" lengthAdjust="spacing" textLength="107" x="795" y="1171.362">timezone?: string</text><rect fill="none" height="6" style="stroke:#C82930;stroke-width:1.0;" width="6" x="783" y="1181.7428"/><text fill="#000000" font-family="sans-serif" font-size="14" lengthAdjust="spacing" textLength="78" x="795" y="1188.9713">string: string</text><line style="stroke:#181818;stroke-width:0.5;" x1="776" x2="907" y1="1196.0475" y2="1196.0475"/></g><!--MD5=[f4a5d32d08dd9eac11f3b1d77e14ce6d]
class StudioInformation--><g id="elem_StudioInformation"><rect codeLine="144" fill="#F1F1F1" height="118.4375" id="StudioInformation" rx="2.5" ry="2.5" style="stroke:#181818;stroke-width:0.5;" width="142" x="943.5" y="1085.61"/><ellipse cx="958.5" cy="1101.61" fill="#ADD1B2" rx="11" ry="11" style="stroke:#181818;stroke-width:1.0;"/><path d="M961.2656,1097.485 Q961.4219,1097.2663 961.6094,1097.1569 Q961.7969,1097.0475 962.0156,1097.0475 Q962.3906,1097.0475 962.625,1097.3131 Q962.8594,1097.5631 962.8594,1098.1725 L962.8594,1099.6256 Q962.8594,1100.235 962.625,1100.5006 Q962.3906,1100.7663 962.0156,1100.7663 Q961.6719,1100.7663 961.4688,1100.5631 Q961.2656,1100.3756 961.1563,1099.86 Q961.1094,1099.5006 960.9219,1099.3131 Q960.5938,1098.9381 959.9844,1098.7194 Q959.375,1098.5006 958.75,1098.5006 Q957.9844,1098.5006 957.3438,1098.8288 Q956.7188,1099.1569 956.2188,1099.9069 Q955.7344,1100.6569 955.7344,1101.6881 L955.7344,1102.7819 Q955.7344,1104.0163 956.625,1104.8444 Q957.5156,1105.6569 959.1094,1105.6569 Q960.0469,1105.6569 960.7031,1105.4069 Q961.0938,1105.2506 961.5156,1104.8131 Q961.7813,1104.5475 961.9219,1104.4694 Q962.0781,1104.3913 962.2813,1104.3913 Q962.6094,1104.3913 962.8594,1104.6569 Q963.125,1104.9069 963.125,1105.2506 Q963.125,1105.5944 962.7813,1106.0006 Q962.2813,1106.5788 961.4844,1106.9069 Q960.4063,1107.36 959.1094,1107.36 Q957.5938,1107.36 956.3906,1106.735 Q955.4063,1106.235 954.7188,1105.1725 Q954.0313,1104.0944 954.0313,1102.8131 L954.0313,1101.6569 Q954.0313,1100.3288 954.6406,1099.1881 Q955.2656,1098.0319 956.3594,1097.4225 Q957.4531,1096.7975 958.6875,1096.7975 Q959.4219,1096.7975 960.0625,1096.9694 Q960.7188,1097.1256 961.2656,1097.485 Z " fill="#000000"/><text fill="#000000" font-family="sans-serif" font-size="14" lengthAdjust="spacing" textLength="110" x="972.5" y="1107.3385">StudioInformation</text><line style="stroke:#181818;stroke-width:0.5;" x1="944.5" x2="1084.5" y1="1117.61" y2="1117.61"/><rect fill="none" height="6" style="stroke:#C82930;stroke-width:1.0;" width="6" x="951.5" y="1128.9147"/><text fill="#000000" font-family="sans-serif" font-size="14" lengthAdjust="spacing" textLength="97" x="963.5" y="1136.1432">mal_id: number</text><rect fill="none" height="6" style="stroke:#C82930;stroke-width:1.0;" width="6" x="951.5" y="1146.5241"/><text fill="#000000" font-family="sans-serif" font-size="14" lengthAdjust="spacing" textLength="70" x="963.5" y="1153.7526">type: string</text><rect fill="none" height="6" style="stroke:#C82930;stroke-width:1.0;" width="6" x="951.5" y="1164.1334"/><text fill="#000000" font-family="sans-serif" font-size="14" lengthAdjust="spacing" textLength="78" x="963.5" y="1171.362">name: string</text><rect fill="none" height="6" style="stroke:#C82930;stroke-width:1.0;" width="6" x="951.5" y="1181.7428"/><text fill="#000000" font-family="sans-serif" font-size="14" lengthAdjust="spacing" textLength="59" x="963.5" y="1188.9713">url: string</text><line style="stroke:#181818;stroke-width:0.5;" x1="944.5" x2="1084.5" y1="1196.0475" y2="1196.0475"/></g><!--MD5=[3fd616f346a44cd59a91eb10b19e157c]
class User--><g id="elem_User"><rect codeLine="151" fill="#F1F1F1" height="153.6563" id="User" rx="2.5" ry="2.5" style="stroke:#181818;stroke-width:0.5;" width="178" x="2166.5" y="58.61"/><ellipse cx="2236.75" cy="74.61" fill="#ADD1B2" rx="11" ry="11" style="stroke:#181818;stroke-width:1.0;"/><path d="M2239.5156,70.485 Q2239.6719,70.2662 2239.8594,70.1569 Q2240.0469,70.0475 2240.2656,70.0475 Q2240.6406,70.0475 2240.875,70.3131 Q2241.1094,70.5631 2241.1094,71.1725 L2241.1094,72.6256 Q2241.1094,73.235 2240.875,73.5006 Q2240.6406,73.7662 2240.2656,73.7662 Q2239.9219,73.7662 2239.7188,73.5631 Q2239.5156,73.3756 2239.4063,72.86 Q2239.3594,72.5006 2239.1719,72.3131 Q2238.8438,71.9381 2238.2344,71.7194 Q2237.625,71.5006 2237,71.5006 Q2236.2344,71.5006 2235.5938,71.8287 Q2234.9688,72.1569 2234.4688,72.9069 Q2233.9844,73.6569 2233.9844,74.6881 L2233.9844,75.7819 Q2233.9844,77.0162 2234.875,77.8444 Q2235.7656,78.6569 2237.3594,78.6569 Q2238.2969,78.6569 2238.9531,78.4069 Q2239.3438,78.2506 2239.7656,77.8131 Q2240.0313,77.5475 2240.1719,77.4694 Q2240.3281,77.3912 2240.5313,77.3912 Q2240.8594,77.3912 2241.1094,77.6569 Q2241.375,77.9069 2241.375,78.2506 Q2241.375,78.5944 2241.0313,79.0006 Q2240.5313,79.5787 2239.7344,79.9069 Q2238.6563,80.36 2237.3594,80.36 Q2235.8438,80.36 2234.6406,79.735 Q2233.6563,79.235 2232.9688,78.1725 Q2232.2813,77.0944 2232.2813,75.8131 L2232.2813,74.6569 Q2232.2813,73.3287 2232.8906,72.1881 Q2233.5156,71.0319 2234.6094,70.4225 Q2235.7031,69.7975 2236.9375,69.7975 Q2237.6719,69.7975 2238.3125,69.9694 Q2238.9688,70.1256 2239.5156,70.485 Z " fill="#000000"/><text fill="#000000" font-family="sans-serif" font-size="14" lengthAdjust="spacing" textLength="29" x="2257.25" y="80.3385">User</text><line style="stroke:#181818;stroke-width:0.5;" x1="2167.5" x2="2343.5" y1="90.61" y2="90.61"/><rect fill="none" height="6" style="stroke:#C82930;stroke-width:1.0;" width="6" x="2174.5" y="101.9147"/><text fill="#000000" font-family="sans-serif" font-size="14" lengthAdjust="spacing" textLength="59" x="2186.5" y="109.1432">id: UserId</text><rect fill="none" height="6" style="stroke:#C82930;stroke-width:1.0;" width="6" x="2174.5" y="119.5241"/><text fill="#000000" font-family="sans-serif" font-size="14" lengthAdjust="spacing" textLength="106" x="2186.5" y="126.7526">username: string</text><rect fill="none" height="6" style="stroke:#C82930;stroke-width:1.0;" width="6" x="2174.5" y="137.1334"/><text fill="#000000" font-family="sans-serif" font-size="14" lengthAdjust="spacing" textLength="76" x="2186.5" y="144.362">email: string</text><rect fill="none" height="6" style="stroke:#C82930;stroke-width:1.0;" width="6" x="2174.5" y="154.7428"/><text fill="#000000" font-family="sans-serif" font-size="14" lengthAdjust="spacing" textLength="103" x="2186.5" y="161.9713">password: string</text><rect fill="none" height="6" style="stroke:#C82930;stroke-width:1.0;" width="6" x="2174.5" y="172.3522"/><text fill="#000000" font-family="sans-serif" font-size="14" lengthAdjust="spacing" textLength="152" x="2186.5" y="179.5807">favorites: List&lt;Favorite&gt;</text><rect fill="none" height="6" style="stroke:#C82930;stroke-width:1.0;" width="6" x="2174.5" y="189.9616"/><text fill="#000000" font-family="sans-serif" font-size="14" lengthAdjust="spacing" textLength="151" x="2186.5" y="197.1901">tracking: List&lt;Tracking&gt;</text><line style="stroke:#181818;stroke-width:0.5;" x1="2167.5" x2="2343.5" y1="204.2662" y2="204.2662"/></g><!--MD5=[3507a60a1befbc7906f5a024a4f6351d]
class Favorite--><g id="elem_Favorite"><rect codeLine="160" fill="#F1F1F1" height="83.2188" id="Favorite" rx="2.5" ry="2.5" style="stroke:#181818;stroke-width:0.5;" width="133" x="2105" y="607.61"/><ellipse cx="2142.05" cy="623.61" fill="#ADD1B2" rx="11" ry="11" style="stroke:#181818;stroke-width:1.0;"/><path d="M2144.8156,619.485 Q2144.9719,619.2662 2145.1594,619.1569 Q2145.3469,619.0475 2145.5656,619.0475 Q2145.9406,619.0475 2146.175,619.3131 Q2146.4094,619.5631 2146.4094,620.1725 L2146.4094,621.6256 Q2146.4094,622.235 2146.175,622.5006 Q2145.9406,622.7662 2145.5656,622.7662 Q2145.2219,622.7662 2145.0188,622.5631 Q2144.8156,622.3756 2144.7063,621.86 Q2144.6594,621.5006 2144.4719,621.3131 Q2144.1438,620.9381 2143.5344,620.7194 Q2142.925,620.5006 2142.3,620.5006 Q2141.5344,620.5006 2140.8938,620.8287 Q2140.2688,621.1569 2139.7688,621.9069 Q2139.2844,622.6569 2139.2844,623.6881 L2139.2844,624.7819 Q2139.2844,626.0162 2140.175,626.8444 Q2141.0656,627.6569 2142.6594,627.6569 Q2143.5969,627.6569 2144.2531,627.4069 Q2144.6438,627.2506 2145.0656,626.8131 Q2145.3313,626.5475 2145.4719,626.4694 Q2145.6281,626.3912 2145.8313,626.3912 Q2146.1594,626.3912 2146.4094,626.6569 Q2146.675,626.9069 2146.675,627.2506 Q2146.675,627.5944 2146.3313,628.0006 Q2145.8313,628.5787 2145.0344,628.9069 Q2143.9563,629.36 2142.6594,629.36 Q2141.1438,629.36 2139.9406,628.735 Q2138.9563,628.235 2138.2688,627.1725 Q2137.5813,626.0944 2137.5813,624.8131 L2137.5813,623.6569 Q2137.5813,622.3287 2138.1906,621.1881 Q2138.8156,620.0319 2139.9094,619.4225 Q2141.0031,618.7975 2142.2375,618.7975 Q2142.9719,618.7975 2143.6125,618.9694 Q2144.2688,619.1256 2144.8156,619.485 Z " fill="#000000"/><text fill="#000000" font-family="sans-serif" font-size="14" lengthAdjust="spacing" textLength="52" x="2160.95" y="629.3385">Favorite</text><line style="stroke:#181818;stroke-width:0.5;" x1="2106" x2="2237" y1="639.61" y2="639.61"/><rect fill="none" height="6" style="stroke:#C82930;stroke-width:1.0;" width="6" x="2113" y="650.9147"/><text fill="#000000" font-family="sans-serif" font-size="14" lengthAdjust="spacing" textLength="67" x="2125" y="658.1432">id: number</text><rect fill="none" height="6" style="stroke:#C82930;stroke-width:1.0;" width="6" x="2113" y="668.5241"/><text fill="#000000" font-family="sans-serif" font-size="14" lengthAdjust="spacing" textLength="107" x="2125" y="675.7526">animeID: number</text><line style="stroke:#181818;stroke-width:0.5;" x1="2106" x2="2237" y1="682.8287" y2="682.8287"/></g><!--MD5=[463c12544fc85af6f1e0c051447fcb90]
class Tracking--><g id="elem_Tracking"><rect codeLine="165" fill="#F1F1F1" height="83.2188" id="Tracking" rx="2.5" ry="2.5" style="stroke:#181818;stroke-width:0.5;" width="133" x="2273" y="607.61"/><ellipse cx="2308.7" cy="623.61" fill="#ADD1B2" rx="11" ry="11" style="stroke:#181818;stroke-width:1.0;"/><path d="M2311.4656,619.485 Q2311.6219,619.2662 2311.8094,619.1569 Q2311.9969,619.0475 2312.2156,619.0475 Q2312.5906,619.0475 2312.825,619.3131 Q2313.0594,619.5631 2313.0594,620.1725 L2313.0594,621.6256 Q2313.0594,622.235 2312.825,622.5006 Q2312.5906,622.7662 2312.2156,622.7662 Q2311.8719,622.7662 2311.6688,622.5631 Q2311.4656,622.3756 2311.3563,621.86 Q2311.3094,621.5006 2311.1219,621.3131 Q2310.7938,620.9381 2310.1844,620.7194 Q2309.575,620.5006 2308.95,620.5006 Q2308.1844,620.5006 2307.5438,620.8287 Q2306.9188,621.1569 2306.4188,621.9069 Q2305.9344,622.6569 2305.9344,623.6881 L2305.9344,624.7819 Q2305.9344,626.0162 2306.825,626.8444 Q2307.7156,627.6569 2309.3094,627.6569 Q2310.2469,627.6569 2310.9031,627.4069 Q2311.2938,627.2506 2311.7156,626.8131 Q2311.9813,626.5475 2312.1219,626.4694 Q2312.2781,626.3912 2312.4813,626.3912 Q2312.8094,626.3912 2313.0594,626.6569 Q2313.325,626.9069 2313.325,627.2506 Q2313.325,627.5944 2312.9813,628.0006 Q2312.4813,628.5787 2311.6844,628.9069 Q2310.6063,629.36 2309.3094,629.36 Q2307.7938,629.36 2306.5906,628.735 Q2305.6063,628.235 2304.9188,627.1725 Q2304.2313,626.0944 2304.2313,624.8131 L2304.2313,623.6569 Q2304.2313,622.3287 2304.8406,621.1881 Q2305.4656,620.0319 2306.5594,619.4225 Q2307.6531,618.7975 2308.8875,618.7975 Q2309.6219,618.7975 2310.2625,618.9694 Q2310.9188,619.1256 2311.4656,619.485 Z " fill="#000000"/><text fill="#000000" font-family="sans-serif" font-size="14" lengthAdjust="spacing" textLength="55" x="2327.3" y="629.3385">Tracking</text><line style="stroke:#181818;stroke-width:0.5;" x1="2274" x2="2405" y1="639.61" y2="639.61"/><rect fill="none" height="6" style="stroke:#C82930;stroke-width:1.0;" width="6" x="2281" y="650.9147"/><text fill="#000000" font-family="sans-serif" font-size="14" lengthAdjust="spacing" textLength="67" x="2293" y="658.1432">id: number</text><rect fill="none" height="6" style="stroke:#C82930;stroke-width:1.0;" width="6" x="2281" y="668.5241"/><text fill="#000000" font-family="sans-serif" font-size="14" lengthAdjust="spacing" textLength="107" x="2293" y="675.7526">animeID: number</text><line style="stroke:#181818;stroke-width:0.5;" x1="2274" x2="2405" y1="682.8287" y2="682.8287"/></g><!--MD5=[44a1b4afaef76c16e6c9ec4990ad0c8d]
class Item--><g id="elem_Item"><rect codeLine="170" fill="#F1F1F1" height="118.4375" id="Item" rx="2.5" ry="2.5" style="stroke:#181818;stroke-width:0.5;" width="186" x="2162.5" y="1085.61"/><ellipse cx="2238.25" cy="1101.61" fill="#ADD1B2" rx="11" ry="11" style="stroke:#181818;stroke-width:1.0;"/><path d="M2241.0156,1097.485 Q2241.1719,1097.2663 2241.3594,1097.1569 Q2241.5469,1097.0475 2241.7656,1097.0475 Q2242.1406,1097.0475 2242.375,1097.3131 Q2242.6094,1097.5631 2242.6094,1098.1725 L2242.6094,1099.6256 Q2242.6094,1100.235 2242.375,1100.5006 Q2242.1406,1100.7663 2241.7656,1100.7663 Q2241.4219,1100.7663 2241.2188,1100.5631 Q2241.0156,1100.3756 2240.9063,1099.86 Q2240.8594,1099.5006 2240.6719,1099.3131 Q2240.3438,1098.9381 2239.7344,1098.7194 Q2239.125,1098.5006 2238.5,1098.5006 Q2237.7344,1098.5006 2237.0938,1098.8288 Q2236.4688,1099.1569 2235.9688,1099.9069 Q2235.4844,1100.6569 2235.4844,1101.6881 L2235.4844,1102.7819 Q2235.4844,1104.0163 2236.375,1104.8444 Q2237.2656,1105.6569 2238.8594,1105.6569 Q2239.7969,1105.6569 2240.4531,1105.4069 Q2240.8438,1105.2506 2241.2656,1104.8131 Q2241.5313,1104.5475 2241.6719,1104.4694 Q2241.8281,1104.3913 2242.0313,1104.3913 Q2242.3594,1104.3913 2242.6094,1104.6569 Q2242.875,1104.9069 2242.875,1105.2506 Q2242.875,1105.5944 2242.5313,1106.0006 Q2242.0313,1106.5788 2241.2344,1106.9069 Q2240.1563,1107.36 2238.8594,1107.36 Q2237.3438,1107.36 2236.1406,1106.735 Q2235.1563,1106.235 2234.4688,1105.1725 Q2233.7813,1104.0944 2233.7813,1102.8131 L2233.7813,1101.6569 Q2233.7813,1100.3288 2234.3906,1099.1881 Q2235.0156,1098.0319 2236.1094,1097.4225 Q2237.2031,1096.7975 2238.4375,1096.7975 Q2239.1719,1096.7975 2239.8125,1096.9694 Q2240.4688,1097.1256 2241.0156,1097.485 Z " fill="#000000"/><text fill="#000000" font-family="sans-serif" font-size="14" lengthAdjust="spacing" textLength="26" x="2258.75" y="1107.3385">Item</text><line style="stroke:#181818;stroke-width:0.5;" x1="2163.5" x2="2347.5" y1="1117.61" y2="1117.61"/><rect fill="none" height="6" style="stroke:#C82930;stroke-width:1.0;" width="6" x="2170.5" y="1128.9147"/><text fill="#000000" font-family="sans-serif" font-size="14" lengthAdjust="spacing" textLength="107" x="2182.5" y="1136.1432">animeID: number</text><rect fill="none" height="6" style="stroke:#C82930;stroke-width:1.0;" width="6" x="2170.5" y="1146.5241"/><text fill="#000000" font-family="sans-serif" font-size="14" lengthAdjust="spacing" textLength="78" x="2182.5" y="1153.7526">name: string</text><rect fill="none" height="6" style="stroke:#C82930;stroke-width:1.0;" width="6" x="2170.5" y="1164.1334"/><text fill="#000000" font-family="sans-serif" font-size="14" lengthAdjust="spacing" textLength="112" x="2182.5" y="1171.362">description: string</text><rect fill="none" height="6" style="stroke:#C82930;stroke-width:1.0;" width="6" x="2170.5" y="1181.7428"/><text fill="#000000" font-family="sans-serif" font-size="14" lengthAdjust="spacing" textLength="160" x="2182.5" y="1188.9713">/* Other item properties */</text><line style="stroke:#181818;stroke-width:0.5;" x1="2163.5" x2="2347.5" y1="1196.0475" y2="1196.0475"/></g><!--MD5=[e0e58a504a73c8ad5c0879a210d2e478]
class AppModel--><g id="elem_AppModel"><rect fill="#F1F1F1" height="48" id="AppModel" rx="2.5" ry="2.5" style="stroke:#181818;stroke-width:0.5;" width="95" x="7" y="111.61"/><ellipse cx="22" cy="127.61" fill="#ADD1B2" rx="11" ry="11" style="stroke:#181818;stroke-width:1.0;"/><path d="M24.7656,123.485 Q24.9219,123.2662 25.1094,123.1569 Q25.2969,123.0475 25.5156,123.0475 Q25.8906,123.0475 26.125,123.3131 Q26.3594,123.5631 26.3594,124.1725 L26.3594,125.6256 Q26.3594,126.235 26.125,126.5006 Q25.8906,126.7662 25.5156,126.7662 Q25.1719,126.7662 24.9688,126.5631 Q24.7656,126.3756 24.6563,125.86 Q24.6094,125.5006 24.4219,125.3131 Q24.0938,124.9381 23.4844,124.7194 Q22.875,124.5006 22.25,124.5006 Q21.4844,124.5006 20.8438,124.8287 Q20.2188,125.1569 19.7188,125.9069 Q19.2344,126.6569 19.2344,127.6881 L19.2344,128.7819 Q19.2344,130.0162 20.125,130.8444 Q21.0156,131.6569 22.6094,131.6569 Q23.5469,131.6569 24.2031,131.4069 Q24.5938,131.2506 25.0156,130.8131 Q25.2813,130.5475 25.4219,130.4694 Q25.5781,130.3912 25.7813,130.3912 Q26.1094,130.3912 26.3594,130.6569 Q26.625,130.9069 26.625,131.2506 Q26.625,131.5944 26.2813,132.0006 Q25.7813,132.5787 24.9844,132.9069 Q23.9063,133.36 22.6094,133.36 Q21.0938,133.36 19.8906,132.735 Q18.9063,132.235 18.2188,131.1725 Q17.5313,130.0944 17.5313,128.8131 L17.5313,127.6569 Q17.5313,126.3287 18.1406,125.1881 Q18.7656,124.0319 19.8594,123.4225 Q20.9531,122.7975 22.1875,122.7975 Q22.9219,122.7975 23.5625,122.9694 Q24.2188,123.1256 24.7656,123.485 Z " fill="#000000"/><text fill="#000000" font-family="sans-serif" font-size="14" lengthAdjust="spacing" textLength="63" x="36" y="133.3385">AppModel</text><line style="stroke:#181818;stroke-width:0.5;" x1="8" x2="101" y1="143.61" y2="143.61"/><line style="stroke:#181818;stroke-width:0.5;" x1="8" x2="101" y1="151.61" y2="151.61"/></g><!--MD5=[75fc92fba4ec7a49f110a9cbd5af5aa7]
class APIHandler--><g id="elem_APIHandler"><rect fill="#F1F1F1" height="48" id="APIHandler" rx="2.5" ry="2.5" style="stroke:#181818;stroke-width:0.5;" width="102" x="168.5" y="111.61"/><ellipse cx="183.5" cy="127.61" fill="#ADD1B2" rx="11" ry="11" style="stroke:#181818;stroke-width:1.0;"/><path d="M186.2656,123.485 Q186.4219,123.2662 186.6094,123.1569 Q186.7969,123.0475 187.0156,123.0475 Q187.3906,123.0475 187.625,123.3131 Q187.8594,123.5631 187.8594,124.1725 L187.8594,125.6256 Q187.8594,126.235 187.625,126.5006 Q187.3906,126.7662 187.0156,126.7662 Q186.6719,126.7662 186.4688,126.5631 Q186.2656,126.3756 186.1563,125.86 Q186.1094,125.5006 185.9219,125.3131 Q185.5938,124.9381 184.9844,124.7194 Q184.375,124.5006 183.75,124.5006 Q182.9844,124.5006 182.3438,124.8287 Q181.7188,125.1569 181.2188,125.9069 Q180.7344,126.6569 180.7344,127.6881 L180.7344,128.7819 Q180.7344,130.0162 181.625,130.8444 Q182.5156,131.6569 184.1094,131.6569 Q185.0469,131.6569 185.7031,131.4069 Q186.0938,131.2506 186.5156,130.8131 Q186.7813,130.5475 186.9219,130.4694 Q187.0781,130.3912 187.2813,130.3912 Q187.6094,130.3912 187.8594,130.6569 Q188.125,130.9069 188.125,131.2506 Q188.125,131.5944 187.7813,132.0006 Q187.2813,132.5787 186.4844,132.9069 Q185.4063,133.36 184.1094,133.36 Q182.5938,133.36 181.3906,132.735 Q180.4063,132.235 179.7188,131.1725 Q179.0313,130.0944 179.0313,128.8131 L179.0313,127.6569 Q179.0313,126.3287 179.6406,125.1881 Q180.2656,124.0319 181.3594,123.4225 Q182.4531,122.7975 183.6875,122.7975 Q184.4219,122.7975 185.0625,122.9694 Q185.7188,123.1256 186.2656,123.485 Z " fill="#000000"/><text fill="#000000" font-family="sans-serif" font-size="14" lengthAdjust="spacing" textLength="70" x="197.5" y="133.3385">APIHandler</text><line style="stroke:#181818;stroke-width:0.5;" x1="169.5" x2="269.5" y1="143.61" y2="143.61"/><line style="stroke:#181818;stroke-width:0.5;" x1="169.5" x2="269.5" y1="151.61" y2="151.61"/></g><!--MD5=[6af80a111c5a57d5758ec20a42964968]
class LocalStorageHandler--><g id="elem_LocalStorageHandler"><rect fill="#F1F1F1" height="48" id="LocalStorageHandler" rx="2.5" ry="2.5" style="stroke:#181818;stroke-width:0.5;" width="165" x="484" y="111.61"/><ellipse cx="499" cy="127.61" fill="#ADD1B2" rx="11" ry="11" style="stroke:#181818;stroke-width:1.0;"/><path d="M501.7656,123.485 Q501.9219,123.2662 502.1094,123.1569 Q502.2969,123.0475 502.5156,123.0475 Q502.8906,123.0475 503.125,123.3131 Q503.3594,123.5631 503.3594,124.1725 L503.3594,125.6256 Q503.3594,126.235 503.125,126.5006 Q502.8906,126.7662 502.5156,126.7662 Q502.1719,126.7662 501.9688,126.5631 Q501.7656,126.3756 501.6563,125.86 Q501.6094,125.5006 501.4219,125.3131 Q501.0938,124.9381 500.4844,124.7194 Q499.875,124.5006 499.25,124.5006 Q498.4844,124.5006 497.8438,124.8287 Q497.2188,125.1569 496.7188,125.9069 Q496.2344,126.6569 496.2344,127.6881 L496.2344,128.7819 Q496.2344,130.0162 497.125,130.8444 Q498.0156,131.6569 499.6094,131.6569 Q500.5469,131.6569 501.2031,131.4069 Q501.5938,131.2506 502.0156,130.8131 Q502.2813,130.5475 502.4219,130.4694 Q502.5781,130.3912 502.7813,130.3912 Q503.1094,130.3912 503.3594,130.6569 Q503.625,130.9069 503.625,131.2506 Q503.625,131.5944 503.2813,132.0006 Q502.7813,132.5787 501.9844,132.9069 Q500.9063,133.36 499.6094,133.36 Q498.0938,133.36 496.8906,132.735 Q495.9063,132.235 495.2188,131.1725 Q494.5313,130.0944 494.5313,128.8131 L494.5313,127.6569 Q494.5313,126.3287 495.1406,125.1881 Q495.7656,124.0319 496.8594,123.4225 Q497.9531,122.7975 499.1875,122.7975 Q499.9219,122.7975 500.5625,122.9694 Q501.2188,123.1256 501.7656,123.485 Z " fill="#000000"/><text fill="#000000" font-family="sans-serif" font-size="14" lengthAdjust="spacing" textLength="133" x="513" y="133.3385">LocalStorageHandler</text><line style="stroke:#181818;stroke-width:0.5;" x1="485" x2="648" y1="143.61" y2="143.61"/><line style="stroke:#181818;stroke-width:0.5;" x1="485" x2="648" y1="151.61" y2="151.61"/></g><!--MD5=[6b1ca637e1f90eed18147fd632a20918]
class Overviews--><g id="elem_Overviews"><rect fill="#F1F1F1" height="48" id="Overviews" rx="2.5" ry="2.5" style="stroke:#181818;stroke-width:0.5;" width="97" x="352" y="111.61"/><ellipse cx="367" cy="127.61" fill="#ADD1B2" rx="11" ry="11" style="stroke:#181818;stroke-width:1.0;"/><path d="M369.7656,123.485 Q369.9219,123.2662 370.1094,123.1569 Q370.2969,123.0475 370.5156,123.0475 Q370.8906,123.0475 371.125,123.3131 Q371.3594,123.5631 371.3594,124.1725 L371.3594,125.6256 Q371.3594,126.235 371.125,126.5006 Q370.8906,126.7662 370.5156,126.7662 Q370.1719,126.7662 369.9688,126.5631 Q369.7656,126.3756 369.6563,125.86 Q369.6094,125.5006 369.4219,125.3131 Q369.0938,124.9381 368.4844,124.7194 Q367.875,124.5006 367.25,124.5006 Q366.4844,124.5006 365.8438,124.8287 Q365.2188,125.1569 364.7188,125.9069 Q364.2344,126.6569 364.2344,127.6881 L364.2344,128.7819 Q364.2344,130.0162 365.125,130.8444 Q366.0156,131.6569 367.6094,131.6569 Q368.5469,131.6569 369.2031,131.4069 Q369.5938,131.2506 370.0156,130.8131 Q370.2813,130.5475 370.4219,130.4694 Q370.5781,130.3912 370.7813,130.3912 Q371.1094,130.3912 371.3594,130.6569 Q371.625,130.9069 371.625,131.2506 Q371.625,131.5944 371.2813,132.0006 Q370.7813,132.5787 369.9844,132.9069 Q368.9063,133.36 367.6094,133.36 Q366.0938,133.36 364.8906,132.735 Q363.9063,132.235 363.2188,131.1725 Q362.5313,130.0944 362.5313,128.8131 L362.5313,127.6569 Q362.5313,126.3287 363.1406,125.1881 Q363.7656,124.0319 364.8594,123.4225 Q365.9531,122.7975 367.1875,122.7975 Q367.9219,122.7975 368.5625,122.9694 Q369.2188,123.1256 369.7656,123.485 Z " fill="#000000"/><text fill="#000000" font-family="sans-serif" font-size="14" lengthAdjust="spacing" textLength="65" x="381" y="133.3385">Overviews</text><line style="stroke:#181818;stroke-width:0.5;" x1="353" x2="448" y1="143.61" y2="143.61"/><line style="stroke:#181818;stroke-width:0.5;" x1="353" x2="448" y1="151.61" y2="151.61"/></g><!--MD5=[d3d3b4274ae34892cd7d7d9cf1105a9d]
link AppViewModel to AppBar--><g id="link_AppViewModel_AppBar"><path codeLine="177" d="M1703.14,168.85 C1669.88,197.48 1623.89,242.19 1596.5,290.61 C1540.68,389.28 1515.28,521.42 1504.86,594.26 " fill="none" id="AppViewModel-to-AppBar" style="stroke:#181818;stroke-width:1.0;"/><polygon fill="#181818" points="1503.03,607.58,1507.8107,602.1814,1504.6661,595.6921,1499.8854,601.0907,1503.03,607.58" style="stroke:#181818;stroke-width:1.0;"/><text fill="#000000" font-family="sans-serif" font-size="13" lengthAdjust="spacing" textLength="56" x="1631.5" y="257.1051">appModel</text></g><!--MD5=[ed493f2be57dbec65ad9613126a02391]
link AppViewModel to DataCards--><g id="link_AppViewModel_DataCards"><path codeLine="178" d="M1743.5,168.99 C1743.5,248.1 1743.5,453.07 1743.5,567.63 " fill="none" id="AppViewModel-to-DataCards" style="stroke:#181818;stroke-width:1.0;"/><polygon fill="#181818" points="1743.5,580.8,1747.5,574.8,1743.5,568.8,1739.5,574.8,1743.5,580.8" style="stroke:#181818;stroke-width:1.0;"/><text fill="#000000" font-family="sans-serif" font-size="13" lengthAdjust="spacing" textLength="56" x="1744.5" y="257.1051">appModel</text></g><!--MD5=[15d2ea747040e83658326482c16621b6]
link AppViewModel to DataTable--><g id="link_AppViewModel_DataTable"><path codeLine="179" d="M1783.22,168.64 C1816.25,197.3 1862.13,242.18 1889.5,290.61 C1947.58,393.37 1973.24,532.23 1983.13,602.83 " fill="none" id="AppViewModel-to-DataTable" style="stroke:#181818;stroke-width:1.0;"/><polygon fill="#181818" points="1984.91,616.01,1988.0697,609.528,1983.3016,604.1183,1980.1419,610.6003,1984.91,616.01" style="stroke:#181818;stroke-width:1.0;"/><text fill="#000000" font-family="sans-serif" font-size="13" lengthAdjust="spacing" textLength="56" x="1868.5" y="257.1051">appModel</text></g><!--MD5=[afa23b29ef7cbf28dd27109f8d9263d6]
link AppModel to APIHandler--><g id="link_AppModel_APIHandler"><path codeLine="180" d="M102.22,135.61 C122.97,135.61 147.31,135.61 168.43,135.61 " fill="none" id="AppModel-APIHandler" style="stroke:#181818;stroke-width:1.0;"/><text fill="#000000" font-family="sans-serif" font-size="13" lengthAdjust="spacing" textLength="30" x="120.25" y="129.1051">Uses</text></g><!--MD5=[b0c719fdd0fc60849ad61974b7de4392]
link APIHandler to LocalStorageHandler--><g id="link_APIHandler_LocalStorageHandler"><path codeLine="181" d="M241.84,111.49 C267.72,85.5 313.03,45.7 361.5,29.61 C432.61,6 509.22,73.44 545.35,111.51 " fill="none" id="APIHandler-LocalStorageHandler" style="stroke:#181818;stroke-width:1.0;"/><text fill="#000000" font-family="sans-serif" font-size="13" lengthAdjust="spacing" textLength="30" x="362.5" y="25.1051">Uses</text></g><!--MD5=[08f680f20956d634c0389c2772efc4a2]
link LocalStorageHandler to LocalStorageHandler--><g id="link_LocalStorageHandler_LocalStorageHandler"><path codeLine="182" d="M649.13,114.22 C669.14,115.85 684,122.98 684,135.61 C684,143.5 678.2,149.25 668.96,152.85 " fill="none" id="LocalStorageHandler-to-LocalStorageHandler" style="stroke:#181818;stroke-width:1.0;"/><polygon fill="none" points="670.14,159.75,649.13,157,667.27,146.05,670.14,159.75" style="stroke:#181818;stroke-width:1.0;"/><text fill="#000000" font-family="sans-serif" font-size="13" lengthAdjust="spacing" textLength="48" x="690" y="141.1051">Extends</text></g><!--MD5=[d809d5e7a25c5a35f9e640584e2707d3]
link APIHandler to Overviews--><g id="link_APIHandler_Overviews"><path codeLine="183" d="M270.88,135.61 C296.28,135.61 326.77,135.61 351.79,135.61 " fill="none" id="APIHandler-Overviews" style="stroke:#181818;stroke-width:1.0;"/><text fill="#000000" font-family="sans-serif" font-size="13" lengthAdjust="spacing" textLength="45" x="288.75" y="129.1051">Returns</text></g><!--MD5=[812d4dc92ff47ab2ddca46eaecb6251f]
link Overviews to IOverview--><g id="link_Overviews_IOverview"><path codeLine="184" d="M400.5,159.92 C400.5,183.57 400.5,223.31 400.5,270.22 " fill="none" id="Overviews-to-IOverview" style="stroke:#181818;stroke-width:1.0;"/><polygon fill="none" points="407.5,270.37,400.5,290.37,393.5,270.37,407.5,270.37" style="stroke:#181818;stroke-width:1.0;"/><text fill="#000000" font-family="sans-serif" font-size="13" lengthAdjust="spacing" textLength="51" x="401.5" y="257.1051">Contains</text></g><!--MD5=[22101e30f0bfa214e7867aacf64d1cc2]
link IOverview to Images--><g id="link_IOverview_Images"><path codeLine="185" d="M350.65,1007.67 C339.52,1087.49 328.96,1163.24 321.96,1213.43 " fill="none" id="IOverview-to-Images" style="stroke:#181818;stroke-width:1.0;"/><polygon fill="none" points="328.88,1214.46,319.19,1233.3,315.02,1212.53,328.88,1214.46" style="stroke:#181818;stroke-width:1.0;"/><text fill="#000000" font-family="sans-serif" font-size="13" lengthAdjust="spacing" textLength="51" x="347.5" y="1052.1051">Contains</text></g><!--MD5=[17387e587d08999552bad3cf8445b119]
link IOverview to Trailer--><g id="link_IOverview_Trailer"><path codeLine="186" d="M443.99,1007.78 C446.51,1028.53 448.87,1047.95 450.97,1065.26 " fill="none" id="IOverview-to-Trailer" style="stroke:#181818;stroke-width:1.0;"/><polygon fill="none" points="457.94,1064.58,453.41,1085.28,444.05,1066.27,457.94,1064.58" style="stroke:#181818;stroke-width:1.0;"/><text fill="#000000" font-family="sans-serif" font-size="13" lengthAdjust="spacing" textLength="51" x="450.5" y="1052.1051">Contains</text></g><!--MD5=[b2a017b8435f3304d5ab759e15d13ce9]
link Images to MediaFormat--><g id="link_Images_MediaFormat"><path codeLine="187" d="M303.99,1316.91 C302.12,1326.59 300.45,1336.92 299.5,1346.61 C293.05,1412.18 297.33,1487.29 302.31,1540.5 " fill="none" id="Images-to-MediaFormat" style="stroke:#181818;stroke-width:1.0;"/><polygon fill="none" points="309.28,1539.86,304.31,1560.46,295.35,1541.25,309.28,1539.86" style="stroke:#181818;stroke-width:1.0;"/><text fill="#000000" font-family="sans-serif" font-size="13" lengthAdjust="spacing" textLength="51" x="300.5" y="1420.1051">Contains</text></g><!--MD5=[640efc12dd97e756f7d5e7ea8a97143f]
link Images2 to MediaFormat--><g id="link_Images2_MediaFormat"><path codeLine="188" d="M416.52,1482.82 C399.78,1502.92 381.46,1524.92 364.82,1544.89 " fill="none" id="Images2-to-MediaFormat" style="stroke:#181818;stroke-width:1.0;"/><polygon fill="none" points="370.09,1549.51,351.91,1560.4,359.33,1540.55,370.09,1549.51" style="stroke:#181818;stroke-width:1.0;"/><text fill="#000000" font-family="sans-serif" font-size="13" lengthAdjust="spacing" textLength="51" x="392.5" y="1527.1051">Contains</text></g><!--MD5=[24fff37e0f2e21164238ccb6bd9b8f6e]
link Trailer to Images2--><g id="link_Trailer_Images2"><path codeLine="189" d="M463.1,1203.76 C464.71,1239.63 466.8,1286.32 468.6,1326.54 " fill="none" id="Trailer-to-Images2" style="stroke:#181818;stroke-width:1.0;"/><polygon fill="none" points="475.6,1326.3,469.5,1346.6,461.61,1326.93,475.6,1326.3" style="stroke:#181818;stroke-width:1.0;"/><text fill="#000000" font-family="sans-serif" font-size="13" lengthAdjust="spacing" textLength="51" x="469.5" y="1280.6051">Contains</text></g><!--MD5=[7c2617532a94409584d52ee7a062d051]
link User to Favorite--><g id="link_User_Favorite"><path codeLine="190" d="M2243.02,212.63 C2225.32,320.41 2193.47,514.31 2179.01,602.37 " fill="none" id="User-to-Favorite" style="stroke:#181818;stroke-width:1.0;"/><polygon fill="#181818" points="2178.17,607.5,2183.5566,599.2547,2178.9689,602.5642,2175.6593,597.9765,2178.17,607.5" style="stroke:#181818;stroke-width:1.0;"/><text fill="#000000" font-family="sans-serif" font-size="13" lengthAdjust="spacing" textLength="21" x="2237.5" y="257.1051">has</text><text fill="#000000" font-family="sans-serif" font-size="13" lengthAdjust="spacing" textLength="7" x="2234.5968" y="233.7282">1</text><text fill="#000000" font-family="sans-serif" font-size="13" lengthAdjust="spacing" textLength="20" x="2157.6185" y="596.7895">0..*</text></g><!--MD5=[2a75c2629f5ae104ee4c20a018c1d6c6]
link User to Tracking--><g id="link_User_Tracking"><path codeLine="191" d="M2267.98,212.63 C2285.68,320.41 2317.53,514.31 2331.99,602.37 " fill="none" id="User-to-Tracking" style="stroke:#181818;stroke-width:1.0;"/><polygon fill="#181818" points="2332.83,607.5,2335.3407,597.9765,2332.0311,602.5642,2327.4434,599.2547,2332.83,607.5" style="stroke:#181818;stroke-width:1.0;"/><text fill="#000000" font-family="sans-serif" font-size="13" lengthAdjust="spacing" textLength="21" x="2276.5" y="257.1051">has</text><text fill="#000000" font-family="sans-serif" font-size="13" lengthAdjust="spacing" textLength="7" x="2261.7798" y="233.7282">1</text><text fill="#000000" font-family="sans-serif" font-size="13" lengthAdjust="spacing" textLength="20" x="2310.069" y="596.7895">0..*</text></g><!--MD5=[130972f9283f3953ecf65e19c0d5d50c]
link Favorite to Item--><g id="link_Favorite_Item"><path codeLine="192" d="M2173.2,690.71 C2177.03,764.42 2188.68,924.71 2221.5,1055.61 C2223.55,1063.77 2226.14,1072.19 2228.98,1080.45 " fill="none" id="Favorite-to-Item" style="stroke:#181818;stroke-width:1.0;"/><polygon fill="#181818" points="2230.77,1085.56,2231.5683,1075.7436,2229.1163,1080.8414,2224.0185,1078.3894,2230.77,1085.56" style="stroke:#181818;stroke-width:1.0;"/><text fill="#000000" font-family="sans-serif" font-size="13" lengthAdjust="spacing" textLength="55" x="2222.5" y="1052.1051">isFavorite</text><text fill="#000000" font-family="sans-serif" font-size="13" lengthAdjust="spacing" textLength="7" x="2165.9019" y="712.4311">1</text><text fill="#000000" font-family="sans-serif" font-size="13" lengthAdjust="spacing" textLength="7" x="2220.3295" y="1074.8782">1</text></g><!--MD5=[80fe9787dad7639d7c206925dda00867]
link Tracking to Item--><g id="link_Tracking_Item"><path codeLine="193" d="M2335.93,690.78 C2329.01,764.25 2311.8,923.75 2282.5,1055.61 C2280.72,1063.62 2278.57,1071.96 2276.26,1080.17 " fill="none" id="Tracking-to-Item" style="stroke:#181818;stroke-width:1.0;"/><polygon fill="#181818" points="2274.81,1085.26,2281.1227,1077.7002,2276.1798,1080.4513,2273.4287,1075.5085,2274.81,1085.26" style="stroke:#181818;stroke-width:1.0;"/><text fill="#000000" font-family="sans-serif" font-size="13" lengthAdjust="spacing" textLength="59" x="2285.5" y="1052.1051">isTracking</text><text fill="#000000" font-family="sans-serif" font-size="13" lengthAdjust="spacing" textLength="7" x="2327.8032" y="712.2019">1</text><text fill="#000000" font-family="sans-serif" font-size="13" lengthAdjust="spacing" textLength="7" x="2269.638" y="1074.9628">1</text></g><!--MD5=[6eac028c3004d3ab4db8ea9c24c3bfec]
@startuml

class AppViewModel {
  + animeList: Overviews
}

class AppBar {
  - appModel: IAppModel
  + handleSearch()
}

class DataCards {
  - appModel: IAppModel
  + toggleHover(mal_id: number | null)
  + addToFavorites(mal_id: number)
  + isFavorite(mal_id: number)
  + toggleFavorites(overview: IOverview)
}

class DataTable {
  - appModel: IAppModel
}

class IAppModel {
  + animeList: Overviews
}

class IOverview {
  - mal_id: number
  - url: string
  - images: Images
  - trailer: Trailer
  - approved: boolean
  - titles: Title[]
  - title: string
  - title_english?: string
  - title_japanese: string
  - title_synonyms: string[]
  - type: string
  - source: string
  - episodes?: number
  - status: string
  - airing: boolean
  - aired: Aired
  - duration: string
  - rating: string
  - score?: number
  - scored_by?: number
  - rank?: number
  - popularity: number
  - members: number
  - favorites: number
  - synopsis?: string
  - background?: string
  - season?: string
  - year?: number
  - broadcast: Broadcast
  - producers: StudioInformation[]
  - licensors: StudioInformation[]
  - studios: StudioInformation[]
  - genres: Genre[]
  - explicit_genres: any[]
  - themes: Theme[]
  - demographics: StudioInformation[]
  - dialog: boolean
  - isFavorite?: boolean
}

class Images {
  - jpg: MediaFormat
  - webp: MediaFormat
}

class MediaFormat {
  - image_url: string
  - small_image_url: string
  - large_image_url: string
}

class Images2 {
  - medium_image_url?: string
  - maximum_image_url?: string
  - image_url?: string
  - small_image_url?: string
  - large_image_url?: string
}

class Trailer {
  - youtube_id?: string
  - url?: string
  - embed_url?: string
  - images: Images2
}

class Genre {
  - mal_id: number
  - type: string
  - name: string
  - url: string
}

class Theme {
  - mal_id: number
  - type: string
  - name: string
  - url: string
}

class Title {
  - type: string
  - title: string
}

class Aired {
  - from?: string
  - to?: string
  - prop: Prop
  - string: string
}

class Prop {
  - from: FromDate
  - to: To
}

class FromDate {
  - day?: number
  - month?: number
  - year?: number
}

class To {
  - day?: number
  - month?: number
  - year?: number
}

class Broadcast {
  - day?: string
  - time?: string
  - timezone?: string
  - string: string
}

class StudioInformation {
  - mal_id: number
  - type: string
  - name: string
  - url: string
}

class User {
  - id: UserId
  - username: string
  - email: string
  - password: string
  - favorites: List<Favorite>
  - tracking: List<Tracking>
}

class Favorite {
  - id: number
  - animeID: number
}

class Tracking {
  - id: number
  - animeID: number
}

class Item {
  - animeID: number
  - name: string
  - description: string
  - /* Other item properties */
}

AppViewModel - -* AppBar: appModel
AppViewModel - -* DataCards: appModel
AppViewModel - -* DataTable: appModel
AppModel - APIHandler: Uses
APIHandler - LocalStorageHandler: Uses
LocalStorageHandler - -|> LocalStorageHandler: Extends
APIHandler - Overviews: Returns
Overviews - -|> IOverview: Contains
IOverview - -|> Images: Contains
IOverview - -|> Trailer: Contains
Images - -|> MediaFormat: Contains
Images2 - -|> MediaFormat: Contains
Trailer - -|> Images2: Contains
User "1" - -> "0..*" Favorite : has
User "1" - -> "0..*" Tracking : has
Favorite "1" - -> "1" Item : isFavorite
Tracking "1" - -> "1" Item : isTracking

@enduml

PlantUML version 1.2022.7(Mon Aug 22 19:01:30 CEST 2022)
(GPL source distribution)
Java Runtime: OpenJDK Runtime Environment
JVM: OpenJDK 64-Bit Server VM
Default Encoding: Cp1252
Language: en
Country: US
--></g></svg>